STARTFONT 2.1
FONT -BadPixel-Medium-R-Normal--48-480-75-75-C-320-ISO10646-1
SIZE 48 75 75
FONTBOUNDINGBOX 32 48 0 -10
STARTPROPERTIES 5
FONT_NAME "BadPixel"
FONT_ASCENT 38
FONT_DESCENT 10
CAP_HEIGHT 38
X_HEIGHT 23
ENDPROPERTIES
CHARS 222
STARTCHAR U+0020
ENCODING 32
SWIDTH 33000 0
DWIDTH 32 0
BBX 32 48 0 -10
BITMAP
00000000
00000000
00000000
00000000
00000000
00000000
00000000
00000000
00000000
00000000
00000000
00000000
00000000
00000000
00000000
00000100
00000300
00000200
00000000
00000000
00000000
00000000
00000000
00000000
00000000
00000000
00000000
00000000
00000000
00000000
00000000
00000000
00000000
00000000
00000000
00000000
00000000
00000000
00000000
00000000
00000000
00000000
00000000
00000000
00000000
00000000
00000000
00000000
ENDCHAR
STARTCHAR U+0021
ENCODING 33
SWIDTH 33000 0
DWIDTH 32 0
BBX 32 48 0 -10
BITMAP
00000000
00000000
00000000
00000000
00000000
00000000
00000000
00000000
00000000
00008000
00008000
00018000
00010000
00010000
00010000
00010000
00010000
00010000
00018000
00008000
00008000
00008000
00008000
00008000
00008000
00008000
00008000
00008000
00008000
00010000
00010000
00010000
00010000
00010000
00010000
00000000
00000000
00000000
00000000
00000000
00000000
00000000
00030000
00070000
00060000
00000000
00000000
00000000
ENDCHAR
STARTCHAR U+0022
ENCODING 34
SWIDTH 33000 0
DWIDTH 32 0
BBX 32 48 0 -10
BITMAP
00000000
00000000
00000000
00000000
00000000
00200400
00200400
00200400
00200C00
00200800
00200800
00600000
00000000
00000000
00000000
00000000
00000000
00000000
00000000
00000000
00000000
00000000
00000000
00000000
00000000
00000000
00000000
00000000
00000000
00000000
00000000
00000000
00000000
00000000
00000000
00000000
00000000
00000000
00000000
00000000
00000000
00000000
00000000
00000000
00000000
00000000
00000000
00000000
ENDCHAR
STARTCHAR U+0023
ENCODING 35
SWIDTH 33000 0
DWIDTH 32 0
BBX 32 48 0 -10
BITMAP
00000000
00000000
00000000
00000000
00000000
00000000
00000000
00000000
00000000
00000000
00000000
00040000
00040400
00080400
00000C00
00080800
00080000
00080800
00080800
00080800
000FFE00
001E0800
00380800
00080800
00080800
00080800
00080800
000BF800
003C1F80
00081000
00081000
00081000
00081000
00181000
00101000
00101000
00000000
00000000
00000000
00000000
00000000
00000000
00000000
00000000
00000000
00000000
00000000
00000000
ENDCHAR
STARTCHAR U+0024
ENCODING 36
SWIDTH 33000 0
DWIDTH 32 0
BBX 32 48 0 -10
BITMAP
00000000
00000000
00000000
00001000
00001000
00001000
00001000
00003F00
00007100
00009000
00019000
00011000
00021000
00022000
00022000
00022000
00032000
00012000
0000A000
00006000
00007000
00005800
00004C00
00004600
00004200
00004300
00004100
00004300
00004200
00004200
00004200
00006400
00002C00
00003800
00006000
0031E000
001F4000
00004000
00004000
00004000
00000000
00000000
00000000
00000000
00000000
00000000
00000000
00000000
ENDCHAR
STARTCHAR U+0025
ENCODING 37
SWIDTH 33000 0
DWIDTH 32 0
BBX 32 48 0 -10
BITMAP
00000000
00000000
00000000
00000000
00000000
00000000
00000000
00000000
00000000
00000000
00000000
00700000
005E0200
00820600
00830C00
00C21800
00421000
00463000
003C2000
00002000
00004000
00008000
00010000
00030000
00060000
00040000
000C0780
001005C0
00101820
00301020
00201040
006018C0
00400F80
00000000
00000000
00000000
00000000
00000000
00000000
00000000
00000000
00000000
00000000
00000000
00000000
00000000
00000000
00000000
ENDCHAR
STARTCHAR U+0026
ENCODING 38
SWIDTH 33000 0
DWIDTH 32 0
BBX 32 48 0 -10
BITMAP
00000000
00000000
00000000
00000000
00000000
00000000
00000000
00000000
00000000
00000000
00000000
00000000
00000000
00000000
00000000
0003E000
00063800
00040800
00080800
00080800
00081000
00083000
00046000
0004C000
00078000
000E0000
003A0000
01C30000
03010000
02008700
0200DC00
02007000
02006000
02009800
03030800
01FC0C00
00000400
00000400
00000700
00000380
00000000
00000000
00000000
00000000
00000000
00000000
00000000
00000000
ENDCHAR
STARTCHAR U+0027
ENCODING 39
SWIDTH 33000 0
DWIDTH 32 0
BBX 32 48 0 -10
BITMAP
00000000
00000000
00000000
00000000
00000100
00000100
00000080
00000080
00000100
00000100
00000100
00000000
00000000
00000000
00000000
00000000
00000000
00000000
00000000
00000000
00000000
00000000
00000000
00000000
00000000
00000000
00000000
00000000
00000000
00000000
00000000
00000000
00000000
00000000
00000000
00000000
00000000
00000000
00000000
00000000
00000000
00000000
00000000
00000000
00000000
00000000
00000000
00000000
ENDCHAR
STARTCHAR U+0028
ENCODING 40
SWIDTH 33000 0
DWIDTH 32 0
BBX 32 48 0 -10
BITMAP
00000000
00000000
00000000
00000000
00000000
00000000
00000000
00000000
00000000
01000000
02000000
02000000
06000000
04000000
04000000
04000000
04000000
04000000
04000000
04000000
04000000
04000000
04000000
04000000
04000000
04000000
04000000
04000000
04000000
04000000
04000000
04000000
04000000
06000000
03000000
03000000
01800000
00800000
00000000
00000000
00000000
00000000
00000000
00000000
00000000
00000000
00000000
00000000
ENDCHAR
STARTCHAR U+0029
ENCODING 41
SWIDTH 33000 0
DWIDTH 32 0
BBX 32 48 0 -10
BITMAP
00000000
00000000
00000000
00000000
00000000
00000000
00000000
00000000
00000000
00000800
00000C00
00000600
00000300
00000100
00000080
000000C0
00000040
00000060
00000020
00000020
00000020
00000020
00000020
00000020
00000020
00000020
00000060
00000040
00000040
00000040
00000040
00000040
00000040
00000040
00000040
000000C0
00000080
00000180
00000300
00000C00
00000000
00000000
00000000
00000000
00000000
00000000
00000000
00000000
ENDCHAR
STARTCHAR U+002A
ENCODING 42
SWIDTH 33000 0
DWIDTH 32 0
BBX 32 48 0 -10
BITMAP
00000000
00000000
00000000
00000000
00000000
00000000
00000000
00100000
00084300
00044A00
00025800
00025000
0001E000
000FFF00
0000E100
0001F000
00065800
000C4C00
0000C400
00008000
00000000
00000000
00000000
00000000
00000000
00000000
00000000
00000000
00000000
00000000
00000000
00000000
00000000
00000000
00000000
00000000
00000000
00000000
00000000
00000000
00000000
00000000
00000000
00000000
00000000
00000000
00000000
00000000
ENDCHAR
STARTCHAR U+002B
ENCODING 43
SWIDTH 33000 0
DWIDTH 32 0
BBX 32 48 0 -10
BITMAP
00000000
00000000
00000000
00000000
00000000
00000000
00000000
00000000
00000000
00000000
00000000
00000000
00000000
00000000
00000000
00000000
00000000
00020000
00010000
00010000
00010000
0083E000
007F3E00
00010000
00010000
00030000
00020000
00020000
00020000
00000000
00000000
00000000
00000000
00000000
00000000
00000000
00000000
00000000
00000000
00000000
00000000
00000000
00000000
00000000
00000000
00000000
00000000
00000000
ENDCHAR
STARTCHAR U+002C
ENCODING 44
SWIDTH 33000 0
DWIDTH 32 0
BBX 32 48 0 -10
BITMAP
00000000
00000000
00000000
00000000
00000000
00000000
00000000
00000000
00000000
00000000
00000000
00000000
00000000
00000000
00000000
00000000
00000000
00000000
00000000
00000000
00000000
00000000
00000000
00000000
00000000
00000000
00000000
00000000
00000000
00000000
00000000
00000000
00000000
00000000
00000000
00000000
00000000
00000000
00000000
00002000
00006000
00004000
0000C000
00008000
00010000
00000000
00000000
00000000
ENDCHAR
STARTCHAR U+002D
ENCODING 45
SWIDTH 33000 0
DWIDTH 32 0
BBX 32 48 0 -10
BITMAP
00000000
00000000
00000000
00000000
00000000
00000000
00000000
00000000
00000000
00000000
00000000
00000000
00000000
00000000
00000000
00000000
00000000
00000000
00000000
00000000
00000000
00000000
003FFC00
00000000
00000000
00000000
00000000
00000000
00000000
00000000
00000000
00000000
00000000
00000000
00000000
00000000
00000000
00000000
00000000
00000000
00000000
00000000
00000000
00000000
00000000
00000000
00000000
00000000
ENDCHAR
STARTCHAR U+002E
ENCODING 46
SWIDTH 33000 0
DWIDTH 32 0
BBX 32 48 0 -10
BITMAP
00000000
00000000
00000000
00000000
00000000
00000000
00000000
00000000
00000000
00000000
00000000
00000000
00000000
00000000
00000000
00000000
00000000
00000000
00000000
00000000
00000000
00000000
00000000
00000000
00000000
00000000
00000000
00000000
00000000
00000000
00000000
00000000
00000000
00000000
00000000
00000000
00000000
00000000
00000000
00000000
00000000
00000E00
00001E00
00001E00
00000C00
00000000
00000000
00000000
ENDCHAR
STARTCHAR U+002F
ENCODING 47
SWIDTH 33000 0
DWIDTH 32 0
BBX 32 48 0 -10
BITMAP
00000000
00000000
00000000
00000000
00000000
00000000
00000000
00000000
00000000
00000080
00000100
00000100
00000000
00000200
00000200
00000600
00000400
00000000
00000800
00001000
00001000
00002000
00002000
00006000
00008000
00000000
00010000
00010000
00020000
00040000
000C0000
00080000
00180000
00300000
00200000
00400000
00C00000
01800000
03000000
06000000
00000000
00000000
00000000
00000000
00000000
00000000
00000000
00000000
ENDCHAR
STARTCHAR U+0030
ENCODING 48
SWIDTH 33000 0
DWIDTH 32 0
BBX 32 48 0 -10
BITMAP
00000000
00000000
00000000
00000000
00000000
00000000
00000000
00000000
00000000
00000000
00000000
0000FC00
00010600
00020300
00060100
00040180
00080080
00080080
00080080
00080080
000C0080
00140080
00160080
00270080
00270080
00230080
00208080
00204080
00203080
00201C80
00200F80
00200300
00200380
00200380
00100280
00180200
00080400
000C0800
00061800
0003F000
00000000
00000000
00000000
00000000
00000000
00000000
00000000
00000000
ENDCHAR
STARTCHAR U+0031
ENCODING 49
SWIDTH 33000 0
DWIDTH 32 0
BBX 32 48 0 -10
BITMAP
00000000
00000000
00000000
00000000
00000000
00000000
00000000
00000000
00000C00
00001C00
00001400
00002400
00006400
0000C400
00018400
00010400
00030800
000C0800
00100800
00300800
00C00800
01800800
00000800
00000800
00000800
00000800
00000800
00001000
00001000
00001000
00000000
00001000
00001000
00001000
00001000
00003000
00002000
00002000
003FFB80
00000000
00000000
00000000
00000000
00000000
00000000
00000000
00000000
00000000
ENDCHAR
STARTCHAR U+0032
ENCODING 50
SWIDTH 33000 0
DWIDTH 32 0
BBX 32 48 0 -10
BITMAP
00000000
00000000
00000000
00000000
00000000
00000000
00000000
00000000
00000000
00000000
00000000
00000000
00000000
00000000
000F0000
00398000
0060C000
00404000
00404000
00004000
00004000
00004000
00004000
00004000
00004000
00004000
00008000
00008000
00010000
00020000
00020000
00060000
00040000
00080000
00100000
00200000
00C00000
01800000
017DF800
00000000
00000000
00000000
00000000
00000000
00000000
00000000
00000000
00000000
ENDCHAR
STARTCHAR U+0033
ENCODING 51
SWIDTH 33000 0
DWIDTH 32 0
BBX 32 48 0 -10
BITMAP
00000000
00000000
00000000
00000000
00000000
00000000
00000000
00000000
00000000
001C0000
0033C000
00006000
00003000
00001000
00001000
00001000
00006000
0000C000
00020000
00060000
00380000
003FE000
00003000
00001800
00000800
00000400
00000400
00000C00
00000800
00000800
00001800
00003000
00006000
0010C000
001F8000
00000000
00000000
00000000
00000000
00000000
00000000
00000000
00000000
00000000
00000000
00000000
00000000
00000000
ENDCHAR
STARTCHAR U+0034
ENCODING 52
SWIDTH 33000 0
DWIDTH 32 0
BBX 32 48 0 -10
BITMAP
00000000
00000000
00000000
00000000
00000000
00000000
00004000
0000C000
00008000
00018000
00010000
00020000
00020000
00040000
000C0000
00180000
00100000
00200000
0060C000
00C08000
00818000
011DFC00
03F10600
02010000
00010000
00010000
00010000
00010000
00030000
00020000
00020000
00060000
00040000
00000000
00000000
00000000
00000000
00000000
00000000
00000000
00000000
00000000
00000000
00000000
00000000
00000000
00000000
00000000
ENDCHAR
STARTCHAR U+0035
ENCODING 53
SWIDTH 33000 0
DWIDTH 32 0
BBX 32 48 0 -10
BITMAP
00000000
00000000
00000000
00000000
00000000
00000000
00000000
00000000
00000000
0007C000
000C6000
00080000
00080000
00080000
00100000
00100000
00100000
001D6000
00002000
00001000
00001800
00000800
00000C00
00000400
00000400
00000400
00000400
00000400
00000400
00400800
00201800
0033F000
000E0000
00000000
00000000
00000000
00000000
00000000
00000000
00000000
00000000
00000000
00000000
00000000
00000000
00000000
00000000
00000000
ENDCHAR
STARTCHAR U+0036
ENCODING 54
SWIDTH 33000 0
DWIDTH 32 0
BBX 32 48 0 -10
BITMAP
00000000
00000000
00000000
00000000
00000000
00000000
00000000
00000000
0007C000
00080000
00180000
00100000
00300000
00200000
00200000
00200000
00200000
00200000
002FC000
00386000
00302000
00101000
00181000
00083000
00066000
00034000
00008000
00000000
00000000
00000000
00000000
00000000
00000000
00000000
00000000
00000000
00000000
00000000
00000000
00000000
00000000
00000000
00000000
00000000
00000000
00000000
00000000
00000000
ENDCHAR
STARTCHAR U+0037
ENCODING 55
SWIDTH 33000 0
DWIDTH 32 0
BBX 32 48 0 -10
BITMAP
00000000
00000000
00000000
00000000
00000000
00000000
00000000
00000000
00000000
00000000
00000000
00007C00
01FFC400
00000400
00000400
00000400
00000400
00000800
00000800
00000800
00001000
00001000
00001000
00003000
00002000
00006000
0007FF00
03F88000
00008000
00010000
00010000
00060000
000C0000
00080000
00100000
00100000
00200000
00000000
00000000
00000000
00000000
00000000
00000000
00000000
00000000
00000000
00000000
00000000
ENDCHAR
STARTCHAR U+0038
ENCODING 56
SWIDTH 33000 0
DWIDTH 32 0
BBX 32 48 0 -10
BITMAP
00000000
00000000
00000000
00000000
00000000
00000000
00000000
00000000
00000000
00000000
002E0000
00C30000
00818000
0100C000
01806000
00802000
00802000
00C02000
00606000
0030C000
00088000
00070000
001A0000
00310000
00410000
00C10000
00810000
00810000
00830000
00860000
00FC0000
00000000
00000000
00000000
00000000
00000000
00000000
00000000
00000000
00000000
00000000
00000000
00000000
00000000
00000000
00000000
00000000
00000000
ENDCHAR
STARTCHAR U+0039
ENCODING 57
SWIDTH 33000 0
DWIDTH 32 0
BBX 32 48 0 -10
BITMAP
00000000
00000000
00000000
00000000
00000000
00000000
00000000
00000000
00000000
00000000
00000000
00000000
00000000
001F0000
00210000
00418000
00810000
00818000
00810000
01010000
01014000
01010000
01864000
00D80000
00004000
00004000
00004000
00004000
00004000
00004000
00002000
00002000
00002000
00002000
00000000
00000000
00000000
00000000
00000000
00000000
00000000
00000000
00000000
00000000
00000000
00000000
00000000
00000000
ENDCHAR
STARTCHAR U+003A
ENCODING 58
SWIDTH 33000 0
DWIDTH 32 0
BBX 32 48 0 -10
BITMAP
00000000
00000000
00000000
00000000
00000000
00000000
00000000
00000000
00000000
00000000
00000000
00000000
00000000
00000000
00000000
00000000
0001C000
0003E000
0001E000
00008000
00000000
00000000
00000000
00000000
00000000
00000000
00000000
00000000
00000000
00000000
00000000
00000000
00006000
0000F000
0000F000
0000E000
00000000
00000000
00000000
00000000
00000000
00000000
00000000
00000000
00000000
00000000
00000000
00000000
ENDCHAR
STARTCHAR U+003B
ENCODING 59
SWIDTH 33000 0
DWIDTH 32 0
BBX 32 48 0 -10
BITMAP
00000000
00000000
00000000
00000000
00000000
00000000
00000000
00000000
00000000
00000000
00000000
00000000
00000000
00000000
00000000
0001E000
0001E000
0001E000
0001C000
00000000
00000000
00000000
00000000
00000000
00000000
00000000
00000000
00000000
00000000
00000000
00000000
00000000
00000000
00000000
00000000
0000E000
0000C000
0000C000
00018000
00030000
00030000
00020000
00000000
00000000
00000000
00000000
00000000
00000000
ENDCHAR
STARTCHAR U+003C
ENCODING 60
SWIDTH 33000 0
DWIDTH 32 0
BBX 32 48 0 -10
BITMAP
00000000
00000000
00000000
00000000
00000000
00000000
00000000
00000000
00000000
00000000
00000000
00000000
00000000
00000000
00000000
00001000
00003000
0000E000
00030000
00060000
00180000
00700000
01800000
03000000
00B00000
004C0000
00060000
00018000
0000C000
00007000
00001000
00000000
00000000
00000000
00000000
00000000
00000000
00000000
00000000
00000000
00000000
00000000
00000000
00000000
00000000
00000000
00000000
00000000
ENDCHAR
STARTCHAR U+003D
ENCODING 61
SWIDTH 33000 0
DWIDTH 32 0
BBX 32 48 0 -10
BITMAP
00000000
00000000
00000000
00000000
00000000
00000000
00000000
00000000
00000000
00000000
00000000
00000000
00000000
00000000
00000000
00000000
00000000
00000000
00000000
00000000
007FFF80
00000080
00000000
00000000
00000000
00000000
00300000
001FF000
00001D80
00000700
00000300
00000000
00000000
00000000
00000000
00000000
00000000
00000000
00000000
00000000
00000000
00000000
00000000
00000000
00000000
00000000
00000000
00000000
ENDCHAR
STARTCHAR U+003E
ENCODING 62
SWIDTH 33000 0
DWIDTH 32 0
BBX 32 48 0 -10
BITMAP
00000000
00000000
00000000
00000000
00000000
00000000
00000000
00000000
00000000
00000000
00000000
00000000
00000000
00000000
00000000
00000000
00000000
00000000
00000000
00000000
00C00000
00200000
00180000
00070000
0001F000
00007800
0001C000
00070000
000C0000
00080000
00300000
00E00000
01800000
07000000
04000000
00000000
00000000
00000000
00000000
00000000
00000000
00000000
00000000
00000000
00000000
00000000
00000000
00000000
ENDCHAR
STARTCHAR U+003F
ENCODING 63
SWIDTH 33000 0
DWIDTH 32 0
BBX 32 48 0 -10
BITMAP
00000000
00000000
00000000
00000000
00000000
00000000
00000000
00000000
00000000
00000000
00000000
00000000
00000000
001FF000
00601000
00001800
00000800
00001000
00001000
00002000
00006000
0000C000
00018000
00020000
00060000
00040000
00080800
00081800
000C3000
00066000
0003C000
00000000
00000000
00000000
00000000
00000000
00000000
00000000
00008000
00018000
00010000
00000000
00000000
00000000
00000000
00000000
00000000
00000000
ENDCHAR
STARTCHAR U+0040
ENCODING 64
SWIDTH 33000 0
DWIDTH 32 0
BBX 32 48 0 -10
BITMAP
00000000
00000000
00000000
00000000
00000000
00000000
00000000
00000000
00000000
00000000
00000000
00000000
00000000
00000000
00000000
001F8000
00706000
00C02000
01803000
01001000
01181000
02361000
02221000
02251000
023CA000
0318E000
01000000
00800000
00E00000
00384000
000F8000
00000000
00000000
00000000
00000000
00000000
00000000
00000000
00000000
00000000
00000000
00000000
00000000
00000000
00000000
00000000
00000000
00000000
ENDCHAR
STARTCHAR U+0041
ENCODING 65
SWIDTH 33000 0
DWIDTH 32 0
BBX 32 48 0 -10
BITMAP
00000000
00000000
00000000
00000000
00000000
00000000
00000000
00000000
00000000
00000000
00008000
0001C000
00014000
00014000
00014000
00024000
00026000
00042000
00042000
00042000
00082000
00080000
000F9000
0008F000
00101000
00101000
00301800
00200800
00200C00
00400400
00800400
00800000
00000000
00000000
00000000
00000000
00000000
00000000
00000000
00000000
00000000
00000000
00000000
00000000
00000000
00000000
00000000
00000000
ENDCHAR
STARTCHAR U+0042
ENCODING 66
SWIDTH 33000 0
DWIDTH 32 0
BBX 32 48 0 -10
BITMAP
00000000
00000000
00000000
00000000
00000000
00000000
00000000
00000000
00000000
00000000
00000000
0003E000
00183000
00100800
00100800
00100800
00100800
00101800
00101000
00102000
00102000
0010C000
00172800
00100C00
00100300
00100100
00100100
00100080
00100080
00100180
00100100
00100200
00300C00
0021F800
00000000
00000000
00000000
00000000
00000000
00000000
00000000
00000000
00000000
00000000
00000000
00000000
00000000
00000000
ENDCHAR
STARTCHAR U+0043
ENCODING 67
SWIDTH 33000 0
DWIDTH 32 0
BBX 32 48 0 -10
BITMAP
00000000
00000000
00000000
00000000
00000000
00000000
00000000
00000000
00000000
00000000
00000000
00000000
00000000
00038000
000C0000
00100000
00200000
00400000
00C00000
00800000
00000000
01000000
02000000
02000000
02000000
02000000
02000000
02000000
02000000
02000000
02000000
01000000
01000000
01000000
00000000
00800000
00600000
00000000
00180000
00078000
00006000
00000000
00000000
00000000
00000000
00000000
00000000
00000000
ENDCHAR
STARTCHAR U+0044
ENCODING 68
SWIDTH 33000 0
DWIDTH 32 0
BBX 32 48 0 -10
BITMAP
00000000
00000000
00000000
00000000
00000000
00000000
00000000
00000000
00000000
00000000
00000000
00000000
00000000
00400000
007C0000
00430000
00418000
0040C000
00C06000
00803000
00801000
00800800
00800C00
00800400
00800400
00800400
00800C00
00800800
00800800
00801800
00801000
00806000
00804000
0080C000
00870000
008C0000
008C0000
00700000
00000000
00000000
00000000
00000000
00000000
00000000
00000000
00000000
00000000
00000000
ENDCHAR
STARTCHAR U+0045
ENCODING 69
SWIDTH 33000 0
DWIDTH 32 0
BBX 32 48 0 -10
BITMAP
00000000
00000000
00000000
00000000
00000000
00000000
00000000
00000000
00000000
00000000
00000000
00000000
007F0000
0041F800
00400800
00400000
00400000
00400000
00400000
00400000
00400000
00400000
00400000
00400800
007FF800
00600000
00400000
00400000
00C00000
00800000
00800000
01800000
01000000
01800000
00800000
00E04000
001FB000
00000000
00000000
00000000
00000000
00000000
00000000
00000000
00000000
00000000
00000000
00000000
ENDCHAR
STARTCHAR U+0046
ENCODING 70
SWIDTH 33000 0
DWIDTH 32 0
BBX 32 48 0 -10
BITMAP
00000000
00000000
00000000
00000000
00000000
00000000
00000000
00000000
00000000
00000000
00000000
00700000
007FFE00
00400000
00400000
00400000
00000000
00400000
00400000
007FE000
00403C00
00400000
00400000
00400000
00400000
00400000
00400000
00C00000
00800000
00800000
00800000
00800000
00800000
00800000
01000000
00000000
00000000
00000000
00000000
00000000
00000000
00000000
00000000
00000000
00000000
00000000
00000000
00000000
ENDCHAR
STARTCHAR U+0047
ENCODING 71
SWIDTH 33000 0
DWIDTH 32 0
BBX 32 48 0 -10
BITMAP
00000000
00000000
00000000
00000000
00000000
00000000
00000000
00000000
00000000
00000000
00000000
00000000
00000000
00000000
00000000
001C0000
00F30000
00818000
00800000
00800000
00800000
00800000
00800000
01000000
01000000
01000000
00800000
009F8000
0040FF80
00403080
00202000
00104000
00138000
001E0000
00000000
00000000
00000000
00000000
00000000
00000000
00000000
00000000
00000000
00000000
00000000
00000000
00000000
00000000
ENDCHAR
STARTCHAR U+0048
ENCODING 72
SWIDTH 33000 0
DWIDTH 32 0
BBX 32 48 0 -10
BITMAP
00000000
00000000
00000000
00000000
00000000
00000000
00000000
00000000
00000000
00000000
00000000
00000000
00000000
00000000
00000000
00800000
00800000
00801000
00801000
00801000
00001000
00802000
00FFE000
01802000
01002000
01002000
01002000
01002000
01006000
01004000
01004000
01004000
01004000
01000000
00000000
00000000
00000000
00000000
00000000
00000000
00000000
00000000
00000000
00000000
00000000
00000000
00000000
00000000
ENDCHAR
STARTCHAR U+0049
ENCODING 73
SWIDTH 33000 0
DWIDTH 32 0
BBX 32 48 0 -10
BITMAP
00000000
00000000
00000000
00000000
00000000
00000000
00000000
00000000
00000000
00000000
00000000
00000000
00000000
0001E000
001FBE00
00008000
00008000
00008000
00004000
00004000
00004000
00004000
00004000
00000000
00008000
00008000
00008000
00008000
00018000
00010000
00010000
00010000
00030000
00020000
00020000
00026000
000FD800
00000000
00000000
00000000
00000000
00000000
00000000
00000000
00000000
00000000
00000000
00000000
ENDCHAR
STARTCHAR U+004A
ENCODING 74
SWIDTH 33000 0
DWIDTH 32 0
BBX 32 48 0 -10
BITMAP
00000000
00000000
00000000
00000000
00000000
00000000
00000000
00000000
00000000
00000000
00000000
00000000
00040600
0007FA00
00000200
00000200
00000200
00000200
00000200
00000200
00000200
00000200
00000200
00000200
00000200
00000600
00000400
00000400
00000800
00001800
00001000
00003000
0001C000
00000000
00000000
00000000
00000000
00000000
00000000
00000000
00000000
00000000
00000000
00000000
00000000
00000000
00000000
00000000
ENDCHAR
STARTCHAR U+004B
ENCODING 75
SWIDTH 33000 0
DWIDTH 32 0
BBX 32 48 0 -10
BITMAP
00000000
00000000
00000000
00000000
00000000
00000000
00000000
00000000
00000000
00000000
00000000
00000000
00800000
00C00800
00403000
00406000
0040C000
00408000
00430000
004C0000
00700000
00400000
00400000
00600000
00600000
00500000
00400000
00480000
00460000
00820000
00810000
00808000
00804000
00007000
00000000
00000000
00000000
00000000
00000000
00000000
00000000
00000000
00000000
00000000
00000000
00000000
00000000
00000000
ENDCHAR
STARTCHAR U+004C
ENCODING 76
SWIDTH 33000 0
DWIDTH 32 0
BBX 32 48 0 -10
BITMAP
00000000
00000000
00000000
00000000
00000000
00000000
00000000
00000000
00000000
00000000
00000000
00000000
00400000
00400000
00400000
00400000
00400000
00400000
00400000
00400000
00400000
00400000
00400000
00400000
00400000
00400000
00400000
00400000
00400000
00400000
00400000
00400000
00400000
00780000
000FC000
00007C00
00000000
00000000
00000000
00000000
00000000
00000000
00000000
00000000
00000000
00000000
00000000
00000000
ENDCHAR
STARTCHAR U+004D
ENCODING 77
SWIDTH 33000 0
DWIDTH 32 0
BBX 32 48 0 -10
BITMAP
00000000
00000000
00000000
00000000
00000000
00000000
00000000
00000000
00000000
00000000
00000000
00400000
00600000
00600020
00700040
001001A0
00500300
00500600
00180C40
00481840
008C1040
00842040
00826040
0081C040
00818040
00808040
00800080
00800080
00800080
00800100
01000100
01000100
01000100
01000300
01000200
00000000
00000000
00000000
00000000
00000000
00000000
00000000
00000000
00000000
00000000
00000000
00000000
00000000
ENDCHAR
STARTCHAR U+004E
ENCODING 78
SWIDTH 33000 0
DWIDTH 32 0
BBX 32 48 0 -10
BITMAP
00000000
00000000
00000000
00000000
00000000
00000000
00000000
00000000
00000000
00000000
00000000
00000000
00000000
00000000
00000000
00008000
00008000
00008020
00008060
00014040
00010040
00010040
000200C0
00022080
00022080
00062080
00041100
00041100
000C1100
00081100
00101200
00101200
00201200
00200A00
00200A00
00000C00
00000C00
00000C00
00000800
00001800
00000000
00000000
00000000
00000000
00000000
00000000
00000000
00000000
ENDCHAR
STARTCHAR U+004F
ENCODING 79
SWIDTH 33000 0
DWIDTH 32 0
BBX 32 48 0 -10
BITMAP
00000000
00000000
00000000
00000000
00000000
00000000
00000000
00000000
00000000
00000000
00E00000
00B80000
008C0000
00860000
00820000
01810000
01010000
01010000
01010000
01010000
01010000
01010000
01020000
01020000
01040000
01040000
01040000
01080000
01080000
01180000
03100000
02200000
02600000
02400000
03800000
04000000
00000000
00000000
00000000
00000000
00000000
00000000
00000000
00000000
00000000
00000000
00000000
00000000
ENDCHAR
STARTCHAR U+0050
ENCODING 80
SWIDTH 33000 0
DWIDTH 32 0
BBX 32 48 0 -10
BITMAP
00000000
00000000
00000000
00000000
00000000
00000000
00000000
00000000
007F8000
0040E000
00401800
00400C00
00400400
00400400
00400400
00400400
00400400
00200400
00200400
00203C00
001FE000
00200000
00200000
00200000
00200000
00200000
00200000
00200000
00200000
00200000
00600000
00400000
00400000
00400000
00C00000
00800000
00800000
00000000
00000000
00000000
00000000
00000000
00000000
00000000
00000000
00000000
00000000
00000000
ENDCHAR
STARTCHAR U+0051
ENCODING 81
SWIDTH 33000 0
DWIDTH 32 0
BBX 32 48 0 -10
BITMAP
00000000
00000000
00000000
00000000
00000000
00000000
00000000
00000000
00000000
00000000
00000000
00000000
0006E000
000C2000
00083800
00180800
00100400
00200400
00600200
00400000
00400200
00000200
00800200
00800200
00800200
00800200
00800200
00800200
00800600
00804C00
00804800
00803000
00803000
0060E800
003D8C00
00000600
00000200
00000000
00000000
00000000
00000000
00000000
00000000
00000000
00000000
00000000
00000000
00000000
ENDCHAR
STARTCHAR U+0052
ENCODING 82
SWIDTH 33000 0
DWIDTH 32 0
BBX 32 48 0 -10
BITMAP
00000000
00000000
00000000
00000000
00000000
00000000
00000000
00000000
00000000
00000000
001F8000
00387000
00101000
00100C00
00100400
00100200
00100200
00100200
00100600
00100C00
00101800
00106000
0011C000
001F0000
001E0000
00130000
00118000
0010C000
00104000
00102000
00102000
00303000
00201000
00201800
00400800
00400C00
00800400
00800200
00000200
00000000
00000000
00000000
00000000
00000000
00000000
00000000
00000000
00000000
ENDCHAR
STARTCHAR U+0053
ENCODING 83
SWIDTH 33000 0
DWIDTH 32 0
BBX 32 48 0 -10
BITMAP
00000000
00000000
00000000
00000000
00000000
00000000
00000000
00000000
00000000
00000000
00000000
0001C000
002C7000
00200000
00600000
00400000
00800000
00800000
00800000
00800000
00C00000
00400000
00400000
00200000
00100000
00180000
00078000
00006000
00002000
00001000
00000000
00001000
00000000
00000800
00000800
00000800
00001800
00803000
00C0C000
003F0000
00000000
00000000
00000000
00000000
00000000
00000000
00000000
00000000
ENDCHAR
STARTCHAR U+0054
ENCODING 84
SWIDTH 33000 0
DWIDTH 32 0
BBX 32 48 0 -10
BITMAP
00000000
00000000
00000000
00000000
00000000
00000000
00000000
00000000
00000000
00000000
00000000
01FFFFC0
00008070
00008020
00008000
00008000
00018000
00018000
00018000
00018000
00010000
00010000
00010000
00010000
00010000
00010000
00030000
00030000
00030000
00020000
00020000
00020000
00020000
00020000
00020000
00060000
00040000
00040000
00000000
00000000
00000000
00000000
00000000
00000000
00000000
00000000
00000000
00000000
ENDCHAR
STARTCHAR U+0055
ENCODING 85
SWIDTH 33000 0
DWIDTH 32 0
BBX 32 48 0 -10
BITMAP
00000000
00000000
00000000
00000000
00000000
00000000
00000000
00000000
00000000
00000000
00000000
02000020
02000010
02000010
02000010
02000010
02000010
02000010
02000010
01000010
02000010
02000010
01000020
01000020
01000020
01800060
00800040
00800040
00800040
00400040
00600040
002001C0
00300100
00180200
00080400
00040C00
0007F000
00000000
00000000
00000000
00000000
00000000
00000000
00000000
00000000
00000000
00000000
00000000
ENDCHAR
STARTCHAR U+0056
ENCODING 86
SWIDTH 33000 0
DWIDTH 32 0
BBX 32 48 0 -10
BITMAP
00000000
00000000
00000000
00000000
00000000
00000000
00000000
00000000
00000000
00000000
00000000
00000000
00000000
02000000
02000000
02000000
02000100
01000100
01000100
01000100
01800200
00800200
00C00600
00400400
00400400
00400C00
00400800
00401000
00203000
00206000
00204000
0021C000
00330000
00160000
000C0000
00080000
00000000
00000000
00000000
00000000
00000000
00000000
00000000
00000000
00000000
00000000
00000000
00000000
ENDCHAR
STARTCHAR U+0057
ENCODING 87
SWIDTH 33000 0
DWIDTH 32 0
BBX 32 48 0 -10
BITMAP
00000000
00000000
00000000
00000000
00000000
00000000
00000000
00000000
00000000
00000000
00000000
00000000
00000000
00000000
00000000
00000000
02082000
02082000
02082010
02082010
030C2010
01062030
01062020
01022020
01814020
0080C020
0080E020
0080B060
00809040
00800880
008108C0
00810C80
00821D80
00840580
00440500
00480380
00580300
00500300
00500300
00700000
00200000
00000000
00000000
00000000
00000000
00000000
00000000
00000000
ENDCHAR
STARTCHAR U+0058
ENCODING 88
SWIDTH 33000 0
DWIDTH 32 0
BBX 32 48 0 -10
BITMAP
00000000
00000000
00000000
00000000
00000000
00000000
00000000
00000000
00000000
00000000
00000000
00000000
00000000
00000000
00800000
00800000
00800000
00800000
00400080
00200080
00100100
00180300
000C0600
00040C00
00021000
00032000
0001C000
00018000
00038000
00064000
000C4000
00086000
00102000
00201000
00601000
00400000
00800600
00800300
00000100
00000000
00000000
00000000
00000000
00000000
00000000
00000000
00000000
00000000
ENDCHAR
STARTCHAR U+0059
ENCODING 89
SWIDTH 33000 0
DWIDTH 32 0
BBX 32 48 0 -10
BITMAP
00000000
00000000
00000000
00000000
00000000
00000000
00000000
00000000
00000000
00000000
00000000
00000000
01000000
01000400
00800400
00800C00
00800800
00401800
00403000
00606000
0020C000
00218000
00310000
00010000
00120000
000C0000
000C0000
00040000
00040000
00040000
00040000
00040000
00040000
00040000
00040000
00040000
00040000
00040000
00000000
00000000
00000000
00000000
00000000
00000000
00000000
00000000
00000000
00000000
ENDCHAR
STARTCHAR U+005A
ENCODING 90
SWIDTH 33000 0
DWIDTH 32 0
BBX 32 48 0 -10
BITMAP
00000000
00000000
00000000
00000000
00000000
00000000
00000000
00000000
00000000
00000000
00000000
00000000
00000000
00DC0000
0007C000
00003800
00001000
00003000
00002000
00006000
00004000
0000C000
00018000
00010000
00020000
00060000
00080000
00180000
00100000
00200000
00400000
007FC000
00000000
00000000
00000000
00000000
00000000
00000000
00000000
00000000
00000000
00000000
00000000
00000000
00000000
00000000
00000000
00000000
ENDCHAR
STARTCHAR U+005B
ENCODING 91
SWIDTH 33000 0
DWIDTH 32 0
BBX 32 48 0 -10
BITMAP
00000000
00000000
00000000
00000000
00000000
00000000
00000000
00000000
00000000
00000000
00000000
00000000
00000000
00000000
000FF000
00180000
00100000
00100000
00100000
00100000
00100000
00100000
00100000
00100000
00100000
00300000
00200000
00200000
00200000
00200000
00200000
00200000
00100000
00300000
00200000
003FC000
00007000
00000000
00000000
00000000
00000000
00000000
00000000
00000000
00000000
00000000
00000000
00000000
ENDCHAR
STARTCHAR U+005C
ENCODING 92
SWIDTH 33000 0
DWIDTH 32 0
BBX 32 48 0 -10
BITMAP
00000000
00000000
00000000
00000000
00000000
00000000
00000000
00000000
00000000
04000000
04000000
02000000
03000000
01000000
01000000
00800000
00800000
00C00000
00600000
00200000
00100000
00080000
000C0000
00020000
00030000
00008000
00008000
00004000
00006000
00002000
00001000
00001800
00000800
00000C00
00000400
00000200
00000300
00000100
00000000
00000000
00000000
00000000
00000000
00000000
00000000
00000000
00000000
00000000
ENDCHAR
STARTCHAR U+005D
ENCODING 93
SWIDTH 33000 0
DWIDTH 32 0
BBX 32 48 0 -10
BITMAP
00000000
00000000
00000000
00000000
00000000
00000000
00000000
00000000
00000000
00000000
00000000
0000F000
00039F00
00000100
00000100
00000100
00000100
00000100
00000100
00000100
00000100
00000100
00000100
00000100
00000100
00000100
00000300
00000200
00000200
00000200
00000200
00000200
00000200
00000200
00000300
00000100
00000100
00000100
00000F00
0003F800
00000000
00000000
00000000
00000000
00000000
00000000
00000000
00000000
ENDCHAR
STARTCHAR U+005E
ENCODING 94
SWIDTH 33000 0
DWIDTH 32 0
BBX 32 48 0 -10
BITMAP
00000000
00000000
00000000
00000000
00000000
00038000
00028000
0004C000
00044000
00086000
00082000
00081000
00101800
00700800
00400400
00000600
00000200
00000000
00000000
00000000
00000000
00000000
00000000
00000000
00000000
00000000
00000000
00000000
00000000
00000000
00000000
00000000
00000000
00000000
00000000
00000000
00000000
00000000
00000000
00000000
00000000
00000000
00000000
00000000
00000000
00000000
00000000
00000000
ENDCHAR
STARTCHAR U+005F
ENCODING 95
SWIDTH 33000 0
DWIDTH 32 0
BBX 32 48 0 -10
BITMAP
00000000
00000000
00000000
00000000
00000000
00000000
00000000
00000000
00000000
00000000
00000000
00000000
00000000
00000000
00000000
00000000
00000000
00000000
00000000
00000000
00000000
00000000
00000000
00000000
00000000
00000000
00000000
00000000
00000000
00000000
00000000
00000000
00000000
00000000
00000000
00000000
00000000
00000000
00C00000
03FFF000
00001FC0
000000E0
00000000
00000000
00000000
00000000
00000000
00000000
ENDCHAR
STARTCHAR U+0060
ENCODING 96
SWIDTH 33000 0
DWIDTH 32 0
BBX 32 48 0 -10
BITMAP
00000000
00000000
00000000
00000000
00000000
04000000
02000000
01000000
01800000
00800000
00000000
00000000
00000000
00000000
00000000
00000000
00000000
00000000
00000000
00000000
00000000
00000000
00000000
00000000
00000000
00000000
00000000
00000000
00000000
00000000
00000000
00000000
00000000
00000000
00000000
00000000
00000000
00000000
00000000
00000000
00000000
00000000
00000000
00000000
00000000
00000000
00000000
00000000
ENDCHAR
STARTCHAR U+0061
ENCODING 97
SWIDTH 33000 0
DWIDTH 32 0
BBX 32 48 0 -10
BITMAP
00000000
00000000
00000000
00000000
00000000
00000000
00000000
00000000
00000000
00000000
00000000
00000000
00000000
00000000
00000000
00000000
00000000
00000000
00000000
00000000
00078000
000CC000
00004000
00006000
00002000
00006000
00004000
000F4000
00318000
0041C000
00434000
005C2000
00701C00
00000000
00000000
00000000
00000000
00000000
00000000
00000000
00000000
00000000
00000000
00000000
00000000
00000000
00000000
00000000
ENDCHAR
STARTCHAR U+0062
ENCODING 98
SWIDTH 33000 0
DWIDTH 32 0
BBX 32 48 0 -10
BITMAP
00000000
00000000
00000000
00000000
00000000
00000000
00000000
00000000
00000000
00000000
00000000
00000000
00000000
00200000
00000000
00200000
00200000
00200000
00200000
00200000
00200000
00200000
00200000
00200000
00200000
00200000
00270000
002CC000
00306000
00302000
00202000
00202000
00204000
0038C000
00070000
00000000
00000000
00000000
00000000
00000000
00000000
00000000
00000000
00000000
00000000
00000000
00000000
00000000
ENDCHAR
STARTCHAR U+0063
ENCODING 99
SWIDTH 33000 0
DWIDTH 32 0
BBX 32 48 0 -10
BITMAP
00000000
00000000
00000000
00000000
00000000
00000000
00000000
00000000
00000000
00000000
00000000
00000000
00000000
00000000
00000000
00000000
00000000
00000000
00000000
00000000
00000000
00000000
00070000
000C0000
00100000
00300000
00200000
00200000
00200000
00100000
00180000
000E0000
00038000
00000000
00000000
00000000
00000000
00000000
00000000
00000000
00000000
00000000
00000000
00000000
00000000
00000000
00000000
00000000
ENDCHAR
STARTCHAR U+0064
ENCODING 100
SWIDTH 33000 0
DWIDTH 32 0
BBX 32 48 0 -10
BITMAP
00000000
00000000
00000000
00000000
00000000
00000000
00000000
00000000
00000000
00000000
00000000
00000000
00000000
00000000
00000000
00000000
00000000
00000000
00000000
00001000
00001000
00001000
00001000
00001000
00001000
00001000
00001000
0007F000
000C3000
00383000
00203000
00203000
00307000
00105000
001F9000
00000000
00000000
00000000
00000000
00000000
00000000
00000000
00000000
00000000
00000000
00000000
00000000
00000000
ENDCHAR
STARTCHAR U+0065
ENCODING 101
SWIDTH 33000 0
DWIDTH 32 0
BBX 32 48 0 -10
BITMAP
00000000
00000000
00000000
00000000
00000000
00000000
00000000
00000000
00000000
00000000
00000000
00000000
00000000
00000000
00000000
00000000
00000000
00000000
00000000
00000000
00000000
00000000
000C0000
000B0000
00310000
00208000
00408000
00418000
00430000
007C0000
00400000
00400000
00600000
00300000
00080000
00000000
00000000
00000000
00000000
00000000
00000000
00000000
00000000
00000000
00000000
00000000
00000000
00000000
ENDCHAR
STARTCHAR U+0066
ENCODING 102
SWIDTH 33000 0
DWIDTH 32 0
BBX 32 48 0 -10
BITMAP
00000000
00000000
00000000
00000000
00000000
00000000
00000000
00000000
00000000
00000000
00000000
00000000
00000000
00000000
00000000
00000000
00000000
00003000
0001E000
00030000
00040000
00040000
00040000
00040000
00040000
00060000
00030000
000FFC00
0010C000
00004000
00002000
00002000
00001000
00001000
00001000
00003000
00006000
0007C000
00000000
00000000
00000000
00000000
00000000
00000000
00000000
00000000
00000000
00000000
ENDCHAR
STARTCHAR U+0067
ENCODING 103
SWIDTH 33000 0
DWIDTH 32 0
BBX 32 48 0 -10
BITMAP
00000000
00000000
00000000
00000000
00000000
00000000
00000000
00000000
00000000
00000000
00000000
00000000
00000000
00000000
00000000
00000000
00000000
00000000
00000000
00000000
00000000
00038000
000C1800
00181800
00302800
00206C00
0020C400
00318C00
001E0800
00000800
00000800
00000800
00001000
00002000
00002000
00006000
0000C000
00018000
00030000
00060000
001C0000
00300000
00000000
00000000
00000000
00000000
00000000
00000000
ENDCHAR
STARTCHAR U+0068
ENCODING 104
SWIDTH 33000 0
DWIDTH 32 0
BBX 32 48 0 -10
BITMAP
00000000
00000000
00000000
00000000
00000000
00000000
00000000
00000000
00000000
00000000
00000000
00000000
00000000
00000000
00000000
00000000
00000000
00000000
00600000
00400000
00E00000
00600000
00600000
00600000
00200000
00200000
00200000
00200000
0027E000
003C6000
00201000
00201800
00200800
00200800
00200800
00200800
00200800
00200000
00000000
00000000
00000000
00000000
00000000
00000000
00000000
00000000
00000000
00000000
ENDCHAR
STARTCHAR U+0069
ENCODING 105
SWIDTH 33000 0
DWIDTH 32 0
BBX 32 48 0 -10
BITMAP
00000000
00000000
00000000
00000000
00000000
00000000
00000000
00000000
00000000
00000000
00000000
00000000
00000000
00000000
00000000
00000000
00000000
00010000
00000000
00000000
00000000
00000000
00000000
00000000
00000000
00000000
00040000
00040000
00040000
000C0000
00080000
00080000
00180000
00100000
00000000
00000000
00000000
00000000
00000000
00000000
00000000
00000000
00000000
00000000
00000000
00000000
00000000
00000000
ENDCHAR
STARTCHAR U+006A
ENCODING 106
SWIDTH 33000 0
DWIDTH 32 0
BBX 32 48 0 -10
BITMAP
00000000
00000000
00000000
00000000
00000000
00000000
00000000
00000000
00000000
00000000
00000000
00000000
00000000
00000000
00000000
00000000
00000000
00000000
00000000
00000000
00002000
00000000
00000000
00000000
00000000
00000000
00010000
00018000
00008000
00008000
00008000
00008000
00010000
00030000
00660000
00380000
00000000
00000000
00000000
00000000
00000000
00000000
00000000
00000000
00000000
00000000
00000000
00000000
ENDCHAR
STARTCHAR U+006B
ENCODING 107
SWIDTH 33000 0
DWIDTH 32 0
BBX 32 48 0 -10
BITMAP
00000000
00000000
00000000
00000000
00000000
00000000
00000000
00000000
00000000
00000000
00000000
00000000
00000000
00000000
00000000
00000000
00000000
00000000
00000000
00040000
00040000
00040000
00040000
00040000
00040000
00040000
0004E000
00058000
00070000
00060000
00070000
00010000
00058000
000C4000
00086000
00002000
00000000
00000000
00000000
00000000
00000000
00000000
00000000
00000000
00000000
00000000
00000000
00000000
ENDCHAR
STARTCHAR U+006C
ENCODING 108
SWIDTH 33000 0
DWIDTH 32 0
BBX 32 48 0 -10
BITMAP
00000000
00000000
00000000
00000000
00000000
00000000
00000000
00000000
00000000
00000000
00000000
00000000
00000000
00000000
00000000
00000000
00000000
00070000
00010000
00010000
00010000
00010000
00010000
00010000
00010000
00010000
00010000
00018000
00008000
00008000
0000C000
00006000
00002000
00000000
00000000
00000000
00000000
00000000
00000000
00000000
00000000
00000000
00000000
00000000
00000000
00000000
00000000
00000000
ENDCHAR
STARTCHAR U+006D
ENCODING 109
SWIDTH 33000 0
DWIDTH 32 0
BBX 32 48 0 -10
BITMAP
00000000
00000000
00000000
00000000
00000000
00000000
00000000
00000000
00000000
00000000
00000000
00000000
00000000
00000000
00000000
00000000
00000000
00000000
00000000
00000000
00000000
00000000
02000000
02000000
01000000
01000000
01000000
00983800
00B4C400
00C48200
00C50200
00870200
00830200
00830200
00830200
00820000
00000000
00000000
00000000
00000000
00000000
00000000
00000000
00000000
00000000
00000000
00000000
00000000
ENDCHAR
STARTCHAR U+006E
ENCODING 110
SWIDTH 33000 0
DWIDTH 32 0
BBX 32 48 0 -10
BITMAP
00000000
00000000
00000000
00000000
00000000
00000000
00000000
00000000
00000000
00000000
00000000
00000000
00000000
00000000
00000000
00000000
00000000
00000000
00000000
00000000
00000000
00000000
00000000
00000000
00800000
00800000
00800000
009F8000
00A08000
00E08000
00C0C000
00C04000
00404000
00404000
00004000
00000000
00000000
00000000
00000000
00000000
00000000
00000000
00000000
00000000
00000000
00000000
00000000
00000000
ENDCHAR
STARTCHAR U+006F
ENCODING 111
SWIDTH 33000 0
DWIDTH 32 0
BBX 32 48 0 -10
BITMAP
00000000
00000000
00000000
00000000
00000000
00000000
00000000
00000000
00000000
00000000
00000000
00000000
00000000
00000000
00000000
00000000
00000000
00000000
00000000
00000000
00000000
00000000
0007E000
001C3000
00601000
00C01800
00800800
00800800
00800400
00800400
00C00400
00400C00
00200800
00301800
00187000
0007C000
00000000
00000000
00000000
00000000
00000000
00000000
00000000
00000000
00000000
00000000
00000000
00000000
ENDCHAR
STARTCHAR U+0070
ENCODING 112
SWIDTH 33000 0
DWIDTH 32 0
BBX 32 48 0 -10
BITMAP
00000000
00000000
00000000
00000000
00000000
00000000
00000000
00000000
00000000
00000000
00000000
00000000
00000000
00000000
00000000
00000000
00000000
00000000
00000000
00000000
00000000
00000000
00000000
00000000
00000000
00000000
000F8000
0010C000
00106000
00102000
00102000
00102000
00302000
0037E000
003C0000
00300000
00300000
00200000
00200000
00000000
00000000
00000000
00000000
00000000
00000000
00000000
00000000
00000000
ENDCHAR
STARTCHAR U+0071
ENCODING 113
SWIDTH 33000 0
DWIDTH 32 0
BBX 32 48 0 -10
BITMAP
00000000
00000000
00000000
00000000
00000000
00000000
00000000
00000000
00000000
00000000
00000000
00000000
00000000
00000000
00000000
00000000
00000000
00000000
00000000
00000000
00000000
00000000
00000000
00000000
00000000
0000E000
00033000
00063000
00043000
00087000
00085000
0008D000
00099000
00061800
00000800
00000800
00000800
00000800
00000C00
00000C00
00000800
00000000
00000000
00000000
00000000
00000000
00000000
00000000
ENDCHAR
STARTCHAR U+0072
ENCODING 114
SWIDTH 33000 0
DWIDTH 32 0
BBX 32 48 0 -10
BITMAP
00000000
00000000
00000000
00000000
00000000
00000000
00000000
00000000
00000000
00000000
00000000
00000000
00000000
00000000
00000000
00000000
00000000
00000000
00000000
00000000
00000000
00000000
00000000
00000000
00200000
00218000
00274000
002C4000
00380000
00300000
00300000
00300000
00200000
00200000
00000000
00000000
00000000
00000000
00000000
00000000
00000000
00000000
00000000
00000000
00000000
00000000
00000000
00000000
ENDCHAR
STARTCHAR U+0073
ENCODING 115
SWIDTH 33000 0
DWIDTH 32 0
BBX 32 48 0 -10
BITMAP
00000000
00000000
00000000
00000000
00000000
00000000
00000000
00000000
00000000
00000000
00000000
00000000
00000000
00000000
00000000
00000000
00000000
00000000
00000000
00000000
00000000
00000000
00000000
00000000
00078000
00040000
00040000
00040000
00030000
0000F800
00000800
00000C00
00000C00
00000800
00001800
00003000
0001E000
00000000
00000000
00000000
00000000
00000000
00000000
00000000
00000000
00000000
00000000
00000000
ENDCHAR
STARTCHAR U+0074
ENCODING 116
SWIDTH 33000 0
DWIDTH 32 0
BBX 32 48 0 -10
BITMAP
00000000
00000000
00000000
00000000
00000000
00000000
00000000
00000000
00000000
00000000
00000000
00000000
00000000
00000000
00000000
00000000
00000000
00000000
00000000
00000000
00000000
00000000
00010000
00010000
00010000
00010000
00010000
00010000
000D3000
0007E000
00010000
00008000
00008000
00008000
0000C000
00004000
00004000
00006000
00000000
00000000
00000000
00000000
00000000
00000000
00000000
00000000
00000000
00000000
ENDCHAR
STARTCHAR U+0075
ENCODING 117
SWIDTH 33000 0
DWIDTH 32 0
BBX 32 48 0 -10
BITMAP
00000000
00000000
00000000
00000000
00000000
00000000
00000000
00000000
00000000
00000000
00000000
00000000
00000000
00000000
00000000
00000000
00000000
00000000
00000000
00000000
00000000
00000000
00000000
00000000
00000000
00080000
00080800
00080400
00100400
00100C00
00100800
00081800
00081000
000C3000
00042000
0006C000
00038000
00000000
00000000
00000000
00000000
00000000
00000000
00000000
00000000
00000000
00000000
00000000
ENDCHAR
STARTCHAR U+0076
ENCODING 118
SWIDTH 33000 0
DWIDTH 32 0
BBX 32 48 0 -10
BITMAP
00000000
00000000
00000000
00000000
00000000
00000000
00000000
00000000
00000000
00000000
00000000
00000000
00000000
00000000
00000000
00000000
00000000
00000000
00000000
00000000
00000000
00000000
00000000
00000000
00000000
00000000
00000000
00000000
00080400
00080400
00080800
000C1800
00041000
00042000
00044000
0004C000
00068000
00038000
00030000
00000000
00000000
00000000
00000000
00000000
00000000
00000000
00000000
00000000
ENDCHAR
STARTCHAR U+0077
ENCODING 119
SWIDTH 33000 0
DWIDTH 32 0
BBX 32 48 0 -10
BITMAP
00000000
00000000
00000000
00000000
00000000
00000000
00000000
00000000
00000000
00000000
00000000
00000000
00000000
00000000
00000000
00000000
00000000
00000000
00000000
00000000
00000000
00000000
00000000
00000000
00000000
00000000
00000000
00000000
01040000
00848000
00858000
00430C00
00031800
00471000
0045B000
0064A000
0028E000
00304000
00300000
00000000
00000000
00000000
00000000
00000000
00000000
00000000
00000000
00000000
ENDCHAR
STARTCHAR U+0078
ENCODING 120
SWIDTH 33000 0
DWIDTH 32 0
BBX 32 48 0 -10
BITMAP
00000000
00000000
00000000
00000000
00000000
00000000
00000000
00000000
00000000
00000000
00000000
00000000
00000000
00000000
00000000
00000000
00000000
00000000
00000000
00000000
00000000
00000000
00000000
00000000
00000000
00000000
00000000
00000000
00081800
00041800
00041000
00023000
00012000
0001C000
0000C000
0001E000
00032000
00041000
00000000
00000000
00000000
00000000
00000000
00000000
00000000
00000000
00000000
00000000
ENDCHAR
STARTCHAR U+0079
ENCODING 121
SWIDTH 33000 0
DWIDTH 32 0
BBX 32 48 0 -10
BITMAP
00000000
00000000
00000000
00000000
00000000
00000000
00000000
00000000
00000000
00000000
00000000
00000000
00000000
00000000
00000000
00000000
00000000
00000000
00000000
00000000
00000000
00000000
00000000
00000000
00000000
00000000
00000000
00000000
00000000
00100000
00100800
00101800
00101000
00086000
000BC000
000C0000
00040000
00040000
00080000
00180000
00100000
00300000
00000000
00000000
00000000
00000000
00000000
00000000
ENDCHAR
STARTCHAR U+007A
ENCODING 122
SWIDTH 33000 0
DWIDTH 32 0
BBX 32 48 0 -10
BITMAP
00000000
00000000
00000000
00000000
00000000
00000000
00000000
00000000
00000000
00000000
00000000
00000000
00000000
00000000
00000000
00000000
00000000
00000000
00000000
00000000
00000000
00000000
00000000
00000000
00000000
00000000
00000000
000FF000
00001000
00001000
00003000
00002000
00006000
00004000
00018000
00060000
001C0000
0017F800
00000000
00000000
00000000
00000000
00000000
00000000
00000000
00000000
00000000
00000000
ENDCHAR
STARTCHAR U+007B
ENCODING 123
SWIDTH 33000 0
DWIDTH 32 0
BBX 32 48 0 -10
BITMAP
00000000
00000000
00000000
00000000
00000000
00000000
00000000
00000000
00000000
00000000
000F0000
00180000
00200000
00600000
00600000
00400000
00700000
00780000
000C0000
00040000
00020000
00020000
00040000
000C0000
00080000
00180000
00100000
00100000
00100000
00100000
00100000
00100000
00100000
00100000
000E0000
00000000
00000000
00000000
00000000
00000000
00000000
00000000
00000000
00000000
00000000
00000000
00000000
00000000
ENDCHAR
STARTCHAR U+007C
ENCODING 124
SWIDTH 33000 0
DWIDTH 32 0
BBX 32 48 0 -10
BITMAP
00000000
00000000
00000000
00000000
00000000
00000000
00000000
00000000
00000000
00000000
00000000
00010000
00010000
00010000
00010000
00010000
00010000
00010000
00010000
00010000
00010000
00010000
00010000
00010000
00010000
00010000
00010000
00010000
00010000
00010000
00010000
00010000
00010000
00010000
00010000
00010000
00010000
00000000
00000000
00000000
00000000
00000000
00000000
00000000
00000000
00000000
00000000
00000000
ENDCHAR
STARTCHAR U+007D
ENCODING 125
SWIDTH 33000 0
DWIDTH 32 0
BBX 32 48 0 -10
BITMAP
00000000
00000000
00000000
00000000
00000000
00000000
00000000
00000000
00000000
00038000
000C7000
00001800
00000800
00000800
00000800
00000800
00001000
00001000
00002000
0000C000
0000C000
00002000
00001000
00001000
00001000
00000800
00000800
00000800
00000800
00000800
00001000
00002000
00006000
0000C000
00118000
001E0000
00000000
00000000
00000000
00000000
00000000
00000000
00000000
00000000
00000000
00000000
00000000
00000000
ENDCHAR
STARTCHAR U+007E
ENCODING 126
SWIDTH 33000 0
DWIDTH 32 0
BBX 32 48 0 -10
BITMAP
00000000
00000000
00000000
00000000
00000000
00000000
00000000
00000000
00000000
00000000
00000000
00000000
00000000
00000000
00000000
00000000
00000000
00000000
00000000
00000000
00000000
00000000
00000000
00000000
00F00000
03880000
00061F00
00033000
0001E000
00000000
00000000
00000000
00000000
00000000
00000000
00000000
00000000
00000000
00000000
00000000
00000000
00000000
00000000
00000000
00000000
00000000
00000000
00000000
ENDCHAR
STARTCHAR U+00A3
ENCODING 163
SWIDTH 33000 0
DWIDTH 32 0
BBX 32 48 0 -10
BITMAP
00000000
00000000
00000000
00000000
00000000
00000000
00000000
00000000
00000000
00000000
00000000
00000000
00000000
00000000
00000000
00000000
00000000
00000000
0000F000
00030000
00060000
000F0000
00FDE000
00080000
00180000
00100000
00100000
00300800
00603800
00FFE000
00000000
00000000
00000000
00000000
00000000
00000000
00000000
00000000
00000000
00000000
00000000
00000000
00000000
00000000
00000000
00000000
00000000
00000000
ENDCHAR
STARTCHAR U+00A5
ENCODING 165
SWIDTH 33000 0
DWIDTH 32 0
BBX 32 48 0 -10
BITMAP
00000000
00000000
00000000
00000000
00000000
00000000
00000000
00000000
00100000
00180200
00080600
00040800
00043000
00026000
00024000
00018000
00010000
00010000
00010000
000FFC00
00010000
00010000
00008000
0007F000
00018000
00008000
00008000
00008000
00008000
00000000
00000000
00000000
00000000
00000000
00000000
00000000
00000000
00000000
00000000
00000000
00000000
00000000
00000000
00000000
00000000
00000000
00000000
00000000
ENDCHAR
STARTCHAR U+00A7
ENCODING 167
SWIDTH 33000 0
DWIDTH 32 0
BBX 32 48 0 -10
BITMAP
00000000
00000000
00000000
00000000
00000000
00000000
00000000
00000000
00000000
00000000
00000000
00000000
0001F000
00030C00
00060400
00040000
00040000
00030000
0001E000
0003F000
0007B800
000C1800
00080800
00100800
00100800
00180800
000C0800
00063800
0003F000
00002000
00204000
0010C000
000F8000
00060000
00000000
00000000
00000000
00000000
00000000
00000000
00000000
00000000
00000000
00000000
00000000
00000000
00000000
00000000
ENDCHAR
STARTCHAR U+00A9
ENCODING 169
SWIDTH 33000 0
DWIDTH 32 0
BBX 32 48 0 -10
BITMAP
00000000
00000000
00000000
00000000
00000000
00000000
00000000
00000000
00000000
00000000
00000000
00000000
00000000
0001C000
00077C00
00040600
00080300
00102100
0010F080
002180C0
00610040
00420040
00420040
00460040
00460040
00620040
00220040
00230040
00210040
00308080
00104180
00186100
000C0200
00060600
00010C00
0000F000
00000000
00000000
00000000
00000000
00000000
00000000
00000000
00000000
00000000
00000000
00000000
00000000
ENDCHAR
STARTCHAR U+00AE
ENCODING 174
SWIDTH 33000 0
DWIDTH 32 0
BBX 32 48 0 -10
BITMAP
00000000
00000000
00000000
00000000
00000000
00000000
00000000
00000000
00000000
00000000
00000000
00000000
00000000
00000000
00000000
0003C000
000C3000
00081800
00100C00
00230600
0062C200
00432300
00C12100
00832080
0083E080
00838080
00828080
00824080
00824080
00823080
00821100
00421100
00420300
00200200
00180400
000C1C00
0003F000
00000000
00000000
00000000
00000000
00000000
00000000
00000000
00000000
00000000
00000000
00000000
ENDCHAR
STARTCHAR U+00B0
ENCODING 176
SWIDTH 33000 0
DWIDTH 32 0
BBX 32 48 0 -10
BITMAP
00000000
00000000
00000000
00000000
00038000
0006C000
00084000
00084000
00102000
00102000
00184000
0007C000
00020000
00000000
00000000
00000000
00000000
00000000
00000000
00000000
00000000
00000000
00000000
00000000
00000000
00000000
00000000
00000000
00000000
00000000
00000000
00000000
00000000
00000000
00000000
00000000
00000000
00000000
00000000
00000000
00000000
00000000
00000000
00000000
00000000
00000000
00000000
00000000
ENDCHAR
STARTCHAR U+00B1
ENCODING 177
SWIDTH 33000 0
DWIDTH 32 0
BBX 32 48 0 -10
BITMAP
00000000
00000000
00000000
00000000
00000000
00000000
00000000
00000000
00000000
00000000
00000000
00000000
00000000
00000000
00000000
00010000
00010000
00010000
000FE000
00010000
00010000
00010000
00000000
00000000
00000000
00FFFF00
00000000
00000000
00000000
00000000
00000000
00000000
00000000
00000000
00000000
00000000
00000000
00000000
00000000
00000000
00000000
00000000
00000000
00000000
00000000
00000000
00000000
00000000
ENDCHAR
STARTCHAR U+00B6
ENCODING 182
SWIDTH 33000 0
DWIDTH 32 0
BBX 32 48 0 -10
BITMAP
00000000
00000000
00000000
00000000
00000000
00000000
00000000
00000000
00000000
0007F800
001E4000
003E4000
007E4000
007E4000
007E4000
007E4000
007E4000
003E4000
000E4000
00024000
00024000
00024000
00024000
00024000
00024000
00024000
00024000
00024000
00024000
00024000
00024000
00024000
00024000
00024000
00000000
00000000
00000000
00000000
00000000
00000000
00000000
00000000
00000000
00000000
00000000
00000000
00000000
00000000
ENDCHAR
STARTCHAR U+00B7
ENCODING 183
SWIDTH 33000 0
DWIDTH 32 0
BBX 32 48 0 -10
BITMAP
00000000
00000000
00000000
00000000
00000000
00000000
00000000
00000000
00000000
00000000
00000000
00000000
00000000
00000000
00000000
00000000
00000000
00000000
00000000
00000000
00000000
00038000
00078000
00078000
00030000
00000000
00000000
00000000
00000000
00000000
00000000
00000000
00000000
00000000
00000000
00000000
00000000
00000000
00000000
00000000
00000000
00000000
00000000
00000000
00000000
00000000
00000000
00000000
ENDCHAR
STARTCHAR U+00C0
ENCODING 192
SWIDTH 33000 0
DWIDTH 32 0
BBX 32 48 0 -10
BITMAP
00000000
00000000
00000000
00000000
00C00000
00600000
00300000
001C0000
00060000
00000000
00020000
00070000
00050000
000D8000
00088000
00108000
00104000
00104000
00206000
00202000
00203000
00401000
00401800
00800800
01800400
017FE600
01003E00
01000200
03000300
02000100
02000100
02000100
04000100
00000180
04000080
00000080
080000C0
00000000
00000000
00000000
00000000
00000000
00000000
00000000
00000000
00000000
00000000
00000000
ENDCHAR
STARTCHAR U+00C1
ENCODING 193
SWIDTH 33000 0
DWIDTH 32 0
BBX 32 48 0 -10
BITMAP
00000000
00000000
00000800
00003000
00006000
00008000
00030000
00000000
00000000
00040000
00060000
00070000
00058000
00048000
0004C000
000C6000
00082000
00083000
00181000
00101000
00301800
00200800
00200C00
00200400
00200400
0040FC00
007F8F00
00400300
00C00100
00800100
00800100
03000080
00000080
02000080
04000080
04000040
00000040
00000000
00000000
00000000
00000000
00000000
00000000
00000000
00000000
00000000
00000000
00000000
ENDCHAR
STARTCHAR U+00C2
ENCODING 194
SWIDTH 33000 0
DWIDTH 32 0
BBX 32 48 0 -10
BITMAP
00000000
00000000
00000000
00008000
0001C000
00024000
00064000
000C6000
00182000
00301000
00221000
00031800
00048800
0004C000
00044000
00086000
00082000
00081000
00081000
00100800
00100800
00200400
0023FE00
003C0200
00600200
00400200
00400300
00400100
00C00100
00800100
00800080
00800080
00800080
00000080
00000000
00000000
00000000
00000000
00000000
00000000
00000000
00000000
00000000
00000000
00000000
00000000
00000000
00000000
ENDCHAR
STARTCHAR U+00C3
ENCODING 195
SWIDTH 33000 0
DWIDTH 32 0
BBX 32 48 0 -10
BITMAP
00000000
00000000
00000000
00000000
00000000
00000000
00000000
001C0200
00338E00
00E0F800
00010000
00020000
00030000
00068000
00048000
0004C000
00044000
00046000
00042000
00082000
00080000
00181000
00101000
00101000
00200800
00200800
00600800
00400C00
00800400
01800400
01000000
03000400
02000600
02000000
06000000
00000000
00000000
00000000
00000000
00000000
00000000
00000000
00000000
00000000
00000000
00000000
00000000
00000000
ENDCHAR
STARTCHAR U+00C4
ENCODING 196
SWIDTH 33000 0
DWIDTH 32 0
BBX 32 48 0 -10
BITMAP
00000000
00000000
00203800
00703400
00703C00
00010000
00028000
00028000
0002C000
00064000
00044000
00044000
00046000
00042000
00042000
000C2000
00082000
00082000
00082000
0011E000
001E2000
00301000
00201000
00601800
00400800
00C00800
00800C00
01000400
01000400
01000400
01000200
02000000
02000000
00000000
00000000
00000000
00000000
00000000
00000000
00000000
00000000
00000000
00000000
00000000
00000000
00000000
00000000
00000000
ENDCHAR
STARTCHAR U+00C5
ENCODING 197
SWIDTH 33000 0
DWIDTH 32 0
BBX 32 48 0 -10
BITMAP
00000000
0000F800
00038800
00060400
000C0400
00100800
00180800
00080800
000E1800
0003F000
0001C000
00030000
00068000
00048000
000C8000
0008C000
00084000
00104000
00304000
00206000
00402000
00401000
00401000
00C1C800
00FE3C00
00801C00
01000400
01000600
01000200
01000300
02000100
02000180
06000080
040000C0
08000040
08000040
00000000
00000000
00000000
00000000
00000000
00000000
00000000
00000000
00000000
00000000
00000000
00000000
ENDCHAR
STARTCHAR U+00C6
ENCODING 198
SWIDTH 33000 0
DWIDTH 32 0
BBX 32 48 0 -10
BITMAP
00000000
00000000
00000000
00000000
00000000
00000000
00000000
0003FE00
00030300
00050000
000D0000
00090000
00090000
00110000
00110000
00108000
00308F80
0020F800
00208000
00208000
00718000
004F0000
00C10000
00810000
01810000
01010000
02030000
0603F800
04000600
04000000
04000000
00000000
00000000
00000000
00000000
00000000
00000000
00000000
00000000
00000000
00000000
00000000
00000000
00000000
00000000
00000000
00000000
00000000
ENDCHAR
STARTCHAR U+00C7
ENCODING 199
SWIDTH 33000 0
DWIDTH 32 0
BBX 32 48 0 -10
BITMAP
00000000
00000000
00000000
00000000
00000000
00000000
00000000
0003C000
00060000
000C0000
00080000
00180000
00100000
00300000
00200000
00200000
00200000
00200000
00200000
00100000
00100000
00100000
00100000
00080000
000C0000
00040000
00060000
00030000
00018600
00007C00
00001000
00001C00
00000200
00000200
00000600
00001800
00000000
00000000
00000000
00000000
00000000
00000000
00000000
00000000
00000000
00000000
00000000
00000000
ENDCHAR
STARTCHAR U+00C8
ENCODING 200
SWIDTH 33000 0
DWIDTH 32 0
BBX 32 48 0 -10
BITMAP
00000000
00000000
00700000
00180000
000C0000
00020000
00020000
00000000
00000000
00800000
00EFF000
00E00000
00800000
00800000
00800000
00800000
00800000
00800000
00800000
00800000
00800000
004FE000
00781800
00400000
00400000
00400000
00400000
00400000
00600000
00400000
00800000
00800000
00C00000
007FC000
00003800
00000000
00000000
00000000
00000000
00000000
00000000
00000000
00000000
00000000
00000000
00000000
00000000
00000000
ENDCHAR
STARTCHAR U+00C9
ENCODING 201
SWIDTH 33000 0
DWIDTH 32 0
BBX 32 48 0 -10
BITMAP
00000000
00000000
00000000
00001E00
0005E000
00070000
00000000
00400000
007FE000
00501C00
00400000
00200000
00200000
00200000
00200000
00200000
00200000
00200000
003F8000
0020F800
00200000
00200000
00200000
00200000
00200000
00200000
00200000
00200000
00200000
00600000
00400000
00400000
00400000
007E0000
0001F800
00001800
00000000
00000000
00000000
00000000
00000000
00000000
00000000
00000000
00000000
00000000
00000000
00000000
ENDCHAR
STARTCHAR U+00CA
ENCODING 202
SWIDTH 33000 0
DWIDTH 32 0
BBX 32 48 0 -10
BITMAP
00000000
00000000
00030000
0007E000
000C2000
00303000
00201800
00000000
00000000
00FFF000
00800000
01800000
01000000
01000000
01000000
01000000
01000000
01000000
01000000
01000000
03000000
03000600
01000C00
01FFF800
01000000
01000000
01000000
01000000
01000000
01000000
01000000
01000000
00800000
00800000
00800000
00800000
00FFF000
001F0000
00000000
00000000
00000000
00000000
00000000
00000000
00000000
00000000
00000000
00000000
ENDCHAR
STARTCHAR U+00CB
ENCODING 203
SWIDTH 33000 0
DWIDTH 32 0
BBX 32 48 0 -10
BITMAP
00000000
00000000
00000000
00183800
00383800
00183800
00003000
00000000
00000000
001FF000
00300000
00200000
00400000
00400000
00400000
00400000
00400000
00400000
00400000
00400000
00400000
00400000
0040FE00
007F8000
00400000
00200000
00200000
00200000
00200000
00400000
00400000
00400000
00400000
00600000
00200000
00600000
003FE000
00001800
00000600
00000000
00000000
00000000
00000000
00000000
00000000
00000000
00000000
00000000
ENDCHAR
STARTCHAR U+00CC
ENCODING 204
SWIDTH 33000 0
DWIDTH 32 0
BBX 32 48 0 -10
BITMAP
00000000
00000000
00300000
00180000
000C0000
00020000
00000000
00FE0000
000DE000
00042000
00040000
00040000
00040000
00040000
00040000
00040000
00040000
00040000
00040000
00040000
00040000
00040000
00000000
00040000
00040000
00040000
00040000
00080000
000F0000
00FDE000
00003000
00000000
00000000
00000000
00000000
00000000
00000000
00000000
00000000
00000000
00000000
00000000
00000000
00000000
00000000
00000000
00000000
00000000
ENDCHAR
STARTCHAR U+00CD
ENCODING 205
SWIDTH 33000 0
DWIDTH 32 0
BBX 32 48 0 -10
BITMAP
00000000
00000000
00000000
00000C00
00007000
0000C000
00018000
00000000
00000000
000F0000
0003E000
00010000
00010000
00010000
00020000
00060000
00040000
00040000
00040000
00040000
00040000
00040000
00040000
00040000
00040000
00040000
00040000
00040000
00040000
00040000
00FFC000
00000000
00000000
00000000
00000000
00000000
00000000
00000000
00000000
00000000
00000000
00000000
00000000
00000000
00000000
00000000
00000000
00000000
ENDCHAR
STARTCHAR U+00CE
ENCODING 206
SWIDTH 33000 0
DWIDTH 32 0
BBX 32 48 0 -10
BITMAP
00000000
00000000
00010000
00028000
00048000
000CC000
00084000
00082000
00000000
003FC000
00027000
00020000
00010000
00010000
00010000
00010000
00010000
00010000
00010000
00010000
00010000
00010000
00010000
00030000
00020000
00020000
002FC000
00386000
00000000
00000000
00000000
00000000
00000000
00000000
00000000
00000000
00000000
00000000
00000000
00000000
00000000
00000000
00000000
00000000
00000000
00000000
00000000
00000000
ENDCHAR
STARTCHAR U+00CF
ENCODING 207
SWIDTH 33000 0
DWIDTH 32 0
BBX 32 48 0 -10
BITMAP
00000000
00000000
00000000
00000000
00000000
00000000
00070000
00071800
00031800
00001C00
00001C00
00000000
007E0000
0007F000
00020000
00020000
00020000
00020000
00020000
00020000
00020000
00020000
00020000
00020000
00020000
00020000
00020000
00020000
00020000
00020000
00020000
003FE000
00000000
00000000
00000000
00000000
00000000
00000000
00000000
00000000
00000000
00000000
00000000
00000000
00000000
00000000
00000000
00000000
ENDCHAR
STARTCHAR U+00D0
ENCODING 208
SWIDTH 33000 0
DWIDTH 32 0
BBX 32 48 0 -10
BITMAP
00000000
00000000
00000000
00000000
00000000
00000000
00000000
00000000
00000000
00000000
01000000
01FF0000
0100C000
01806000
00801000
00801800
00800800
00800800
00800400
07F80400
088C0400
00800C00
00801800
00803000
00806000
0081C000
00830000
008C0000
00B80000
00600000
00000000
00000000
00000000
00000000
00000000
00000000
00000000
00000000
00000000
00000000
00000000
00000000
00000000
00000000
00000000
00000000
00000000
00000000
ENDCHAR
STARTCHAR U+00D1
ENCODING 209
SWIDTH 33000 0
DWIDTH 32 0
BBX 32 48 0 -10
BITMAP
00000000
00000000
00000000
00060000
001F0070
0010C0C0
00206180
00003E00
00000800
00000000
00200100
00300100
00300100
00280100
00280200
00280200
00240400
00240400
00240400
00260400
00220400
00620400
00420800
00420800
00410800
00411000
00411000
00411000
00C12000
0081A000
0080E000
0080C000
0080C000
00000000
00000000
00000000
00000000
00000000
00000000
00000000
00000000
00000000
00000000
00000000
00000000
00000000
00000000
00000000
ENDCHAR
STARTCHAR U+00D2
ENCODING 210
SWIDTH 33000 0
DWIDTH 32 0
BBX 32 48 0 -10
BITMAP
00000000
00000000
01000000
00800000
00600000
00300000
00180000
00000000
00000000
00070000
0019C000
00606000
00403000
00C01800
01800C00
01000400
01000400
01000400
01000400
03000400
02000400
02000400
02000400
01000C00
01000800
01000800
01001000
00801000
00801000
00C03000
00602000
00304000
001D8000
00030000
00000000
00000000
00000000
00000000
00000000
00000000
00000000
00000000
00000000
00000000
00000000
00000000
00000000
00000000
ENDCHAR
STARTCHAR U+00D3
ENCODING 211
SWIDTH 33000 0
DWIDTH 32 0
BBX 32 48 0 -10
BITMAP
00000000
00000000
00000000
00000C00
00003800
00006000
0000C000
00018000
00000000
00000000
00008000
000FF800
00180C00
00200200
00600300
00400100
00400080
00400080
00400080
00400080
00400080
00600080
00200080
00200080
00200080
00100080
00100180
00080100
000C0200
00061C00
0001F000
00000000
00000000
00000000
00000000
00000000
00000000
00000000
00000000
00000000
00000000
00000000
00000000
00000000
00000000
00000000
00000000
00000000
ENDCHAR
STARTCHAR U+00D4
ENCODING 212
SWIDTH 33000 0
DWIDTH 32 0
BBX 32 48 0 -10
BITMAP
00000000
00020000
00070000
000D0000
00198000
0030C000
00404000
00003000
00000000
001F0000
0031C000
00606000
00401000
00801800
00800800
00800800
01000800
01000800
03000800
01000800
01000800
01000800
01000800
01001800
01801000
00C03000
00604000
00318000
001F0000
00000000
00000000
00000000
00000000
00000000
00000000
00000000
00000000
00000000
00000000
00000000
00000000
00000000
00000000
00000000
00000000
00000000
00000000
00000000
ENDCHAR
STARTCHAR U+00D5
ENCODING 213
SWIDTH 33000 0
DWIDTH 32 0
BBX 32 48 0 -10
BITMAP
00000000
00000000
00000300
00070C00
0019F800
00300000
00200000
00000000
0000F000
00071000
000C1800
00080C00
00180400
00100200
00100300
00100100
00100100
00100100
00300100
00200100
00200100
00200100
00200100
00100300
00100200
00100600
00080400
000C0800
00063000
0003E000
00000000
00000000
00000000
00000000
00000000
00000000
00000000
00000000
00000000
00000000
00000000
00000000
00000000
00000000
00000000
00000000
00000000
00000000
ENDCHAR
STARTCHAR U+00D6
ENCODING 214
SWIDTH 33000 0
DWIDTH 32 0
BBX 32 48 0 -10
BITMAP
00000000
00040000
000E0C00
000E0C00
00000000
00000000
00000000
00038000
000DC000
00103000
00200800
00200400
00200400
00200200
00200200
00200200
00200200
00200200
00200200
00200200
00200200
00200600
00300400
00100C00
00100800
00081800
000EE000
00038000
00000000
00000000
00000000
00000000
00000000
00000000
00000000
00000000
00000000
00000000
00000000
00000000
00000000
00000000
00000000
00000000
00000000
00000000
00000000
00000000
ENDCHAR
STARTCHAR U+00D7
ENCODING 215
SWIDTH 33000 0
DWIDTH 32 0
BBX 32 48 0 -10
BITMAP
00000000
00000000
00000000
00000000
00000000
00000000
00000000
00000000
00000000
00000000
00000000
00000000
00000000
00000000
00000000
00000000
00000000
00203800
00186000
000EC000
00038000
00018000
00034000
00063000
000C1800
00180800
00100000
00000000
00000000
00000000
00000000
00000000
00000000
00000000
00000000
00000000
00000000
00000000
00000000
00000000
00000000
00000000
00000000
00000000
00000000
00000000
00000000
00000000
ENDCHAR
STARTCHAR U+00D8
ENCODING 216
SWIDTH 33000 0
DWIDTH 32 0
BBX 32 48 0 -10
BITMAP
00000000
00000000
00000000
00000020
00000060
0000F040
000319C0
00040D00
00080700
00100200
00100300
00100500
00100900
00301880
00201080
00202080
00202080
002040C0
0060C040
00408040
00418040
00410080
00430080
00620080
00240180
00340300
00180200
001E0600
0013FC00
00203000
00400000
00400000
00000000
00000000
00000000
00000000
00000000
00000000
00000000
00000000
00000000
00000000
00000000
00000000
00000000
00000000
00000000
00000000
ENDCHAR
STARTCHAR U+00D9
ENCODING 217
SWIDTH 33000 0
DWIDTH 32 0
BBX 32 48 0 -10
BITMAP
00000000
00000000
00000000
00000000
00000000
00600000
00300000
00180000
000C0000
00040000
00060000
01020000
02000000
02001800
02000800
02000800
02000800
02000000
02000800
02000800
02000800
02000800
02000800
02000800
02001000
02001000
02001000
02001000
02001000
02001000
02001000
01001000
01003000
01802000
00802000
00406000
00208000
00130000
000E0000
00000000
00000000
00000000
00000000
00000000
00000000
00000000
00000000
00000000
ENDCHAR
STARTCHAR U+00DA
ENCODING 218
SWIDTH 33000 0
DWIDTH 32 0
BBX 32 48 0 -10
BITMAP
00000000
00000000
00000000
00000000
00000400
00003C00
00006000
00038000
00000000
00000000
00000000
00800100
00800100
00800100
00800100
00800180
00800080
00800080
00800000
00800100
00800100
00800100
00C00100
00C00100
00C00200
00400200
00400200
00400200
00600200
00400400
00400400
00200400
00200400
00200C00
00200800
00300800
00101000
000C3000
0007E000
00000000
00000000
00000000
00000000
00000000
00000000
00000000
00000000
00000000
ENDCHAR
STARTCHAR U+00DB
ENCODING 219
SWIDTH 33000 0
DWIDTH 32 0
BBX 32 48 0 -10
BITMAP
00000000
00000000
00000000
0000C000
0000C000
0000A000
00012000
00022000
00062000
00041000
00041000
00081000
00081000
00801000
00800100
00800100
00800100
00800180
01000080
01000080
01000080
01000080
01000080
010000C0
018000C0
00800040
00800040
00800040
00800040
00800040
00800040
008000C0
00800080
00800080
00800100
00400200
00400600
00200400
00201000
00186000
000FC000
00000000
00000000
00000000
00000000
00000000
00000000
00000000
ENDCHAR
STARTCHAR U+00DC
ENCODING 220
SWIDTH 33000 0
DWIDTH 32 0
BBX 32 48 0 -10
BITMAP
00000000
00000000
00000000
00080000
001CE000
0038F000
0019F000
0000E000
00000000
00000000
01000000
01000200
01000200
01000200
01000200
01000200
01000200
01000200
01000200
01000200
01000200
01000200
01000200
01000200
01000600
01000400
01000400
01800400
00800800
00800800
00C01000
00401000
00602000
00306000
00198000
000F0000
00000000
00000000
00000000
00000000
00000000
00000000
00000000
00000000
00000000
00000000
00000000
00000000
ENDCHAR
STARTCHAR U+00DD
ENCODING 221
SWIDTH 33000 0
DWIDTH 32 0
BBX 32 48 0 -10
BITMAP
00000000
00000000
00000000
00000000
00000000
00000000
00000200
00000600
00000800
00C03000
00404100
00408100
00200300
00300600
00100C00
00101800
00101000
00106000
0010C000
00198000
000E0000
000C0000
000C0000
00040000
00040000
00040000
00040000
00040000
00040000
00040000
00040000
00040000
00040000
00040000
00080000
00080000
00080000
00000000
00000000
00000000
00000000
00000000
00000000
00000000
00000000
00000000
00000000
00000000
ENDCHAR
STARTCHAR U+00DE
ENCODING 222
SWIDTH 33000 0
DWIDTH 32 0
BBX 32 48 0 -10
BITMAP
00000000
00000000
00000000
00000000
00000000
00000000
00000000
00000000
00100000
00100000
00100000
00170000
001CF000
00101800
00100800
00100800
00100800
00100800
00101800
00103000
00106000
00178000
001C0000
00100000
00100000
00100000
00100000
00100000
00100000
00100000
00100000
00100000
00180000
00100000
00100000
00000000
00000000
00000000
00000000
00000000
00000000
00000000
00000000
00000000
00000000
00000000
00000000
00000000
ENDCHAR
STARTCHAR U+00DF
ENCODING 223
SWIDTH 33000 0
DWIDTH 32 0
BBX 32 48 0 -10
BITMAP
00000000
00000000
00000000
00000000
00000000
00000000
00000000
0000F800
00070800
00180C00
00100400
00300400
00200400
00400400
00400400
00400800
00C01800
00801000
00802000
01804000
0180C000
01030000
018C0000
01880000
01180000
01100000
01080000
010FC000
01006000
01003000
01001000
01001000
01001000
01603000
01206000
0135C000
000E0000
00000000
00000000
00000000
00000000
00000000
00000000
00000000
00000000
00000000
00000000
00000000
ENDCHAR
STARTCHAR U+00E0
ENCODING 224
SWIDTH 33000 0
DWIDTH 32 0
BBX 32 48 0 -10
BITMAP
00000000
00000000
00000000
00000000
00000000
00000000
00000000
00000000
00000000
00000000
00000000
00040000
00020000
00030000
00010000
00008000
00000000
003F0000
00018000
0000C000
00002000
0007E000
00182000
00302000
00206000
0040C000
00418000
00410000
00260800
00380700
00000000
00000000
00000000
00000000
00000000
00000000
00000000
00000000
00000000
00000000
00000000
00000000
00000000
00000000
00000000
00000000
00000000
00000000
ENDCHAR
STARTCHAR U+00E1
ENCODING 225
SWIDTH 33000 0
DWIDTH 32 0
BBX 32 48 0 -10
BITMAP
00000000
00000000
00000000
00000000
00000000
00000000
00000000
00000000
00000000
00000000
00000000
00000000
00000000
00000000
00000000
00000600
00001C00
00007C00
0000C000
00000000
00000000
000C0000
000B0000
00008000
0000C000
00004000
00004000
00004000
001FC000
0010C000
0010E000
0011B000
001D1800
00000400
00000200
00000000
00000000
00000000
00000000
00000000
00000000
00000000
00000000
00000000
00000000
00000000
00000000
00000000
ENDCHAR
STARTCHAR U+00E2
ENCODING 226
SWIDTH 33000 0
DWIDTH 32 0
BBX 32 48 0 -10
BITMAP
00000000
00000000
00000000
00000000
00000000
00000000
00000000
00000000
00000000
00000000
0000E000
0001A000
000F2000
00301000
00401800
00000800
00000000
00000000
001F0000
00608000
00C0C000
00004000
00004000
0000C000
000FC000
00184000
0020C000
0020C000
0040A000
00412000
00431000
00221800
003C0000
00000000
00000000
00000000
00000000
00000000
00000000
00000000
00000000
00000000
00000000
00000000
00000000
00000000
00000000
00000000
ENDCHAR
STARTCHAR U+00E3
ENCODING 227
SWIDTH 33000 0
DWIDTH 32 0
BBX 32 48 0 -10
BITMAP
00000000
00000000
00000000
00000000
00000000
00000000
00000000
00000000
00000000
00000000
00000000
00780000
00C40E00
00031E00
0001E000
0000C000
00000000
000E0000
003B0000
00E10000
00008000
00008000
00008000
00018000
00DD0000
00830000
01038000
01066000
010C3000
01B81800
00E00C00
00000400
00000000
00000000
00000000
00000000
00000000
00000000
00000000
00000000
00000000
00000000
00000000
00000000
00000000
00000000
00000000
00000000
ENDCHAR
STARTCHAR U+00E4
ENCODING 228
SWIDTH 33000 0
DWIDTH 32 0
BBX 32 48 0 -10
BITMAP
00000000
00000000
00000000
00000000
00000000
00000000
00000000
00000000
00000000
000C0000
001C1800
000C3C00
00003800
00000000
00000000
00000000
00030000
000D0000
00018000
0000C000
00006000
00002000
00002000
01F86000
01064000
02034000
02008000
0201C000
03066000
01B82000
00603000
00001C00
00000000
00000000
00000000
00000000
00000000
00000000
00000000
00000000
00000000
00000000
00000000
00000000
00000000
00000000
00000000
00000000
ENDCHAR
STARTCHAR U+00E5
ENCODING 229
SWIDTH 33000 0
DWIDTH 32 0
BBX 32 48 0 -10
BITMAP
00000000
00000000
00000000
00000000
00000000
00000000
00000000
00000000
00000000
00000000
000F8000
000C4000
00184000
00104000
00184000
0008C000
000C8000
00070000
00000000
001F0000
00408000
00008000
00004000
00004000
00004000
003E4000
00234000
0040C000
00C0C000
0081A000
00811800
00820C00
004C0700
00300100
00000000
00000000
00000000
00000000
00000000
00000000
00000000
00000000
00000000
00000000
00000000
00000000
00000000
00000000
ENDCHAR
STARTCHAR U+00E6
ENCODING 230
SWIDTH 33000 0
DWIDTH 32 0
BBX 32 48 0 -10
BITMAP
00000000
00000000
00000000
00000000
00000000
00000000
00000000
00000000
00000000
00000000
00000000
00000000
00000000
00080000
000C7000
0004D800
00038C00
00030400
00020400
00020C00
003EF000
00638000
01810000
01030000
01838000
00C6C000
002C7000
00101000
00000000
00000000
00000000
00000000
00000000
00000000
00000000
00000000
00000000
00000000
00000000
00000000
00000000
00000000
00000000
00000000
00000000
00000000
00000000
00000000
ENDCHAR
STARTCHAR U+00E7
ENCODING 231
SWIDTH 33000 0
DWIDTH 32 0
BBX 32 48 0 -10
BITMAP
00000000
00000000
00000000
00000000
00000000
00000000
00000000
00000000
00000000
00000000
00000000
00000000
00000000
00000000
001BC000
00100000
00200000
00200000
00400000
00400000
00400000
00400000
00600000
00200000
00300000
00100000
00080000
00060000
0003E000
00008000
00018000
0001E000
00006000
0000C000
00010000
00000000
00000000
00000000
00000000
00000000
00000000
00000000
00000000
00000000
00000000
00000000
00000000
00000000
ENDCHAR
STARTCHAR U+00E8
ENCODING 232
SWIDTH 33000 0
DWIDTH 32 0
BBX 32 48 0 -10
BITMAP
00000000
00000000
00000000
00000000
00000000
00000000
00000000
00000000
00000000
00000000
00000000
00000000
00000000
00000000
00000000
00020000
00020000
00010000
00010000
00000000
0003E000
000C3000
00081000
00183000
00106000
00118000
001F0000
00180000
000C0000
00060000
00010000
0001C000
00004000
00000000
00000000
00000000
00000000
00000000
00000000
00000000
00000000
00000000
00000000
00000000
00000000
00000000
00000000
00000000
ENDCHAR
STARTCHAR U+00E9
ENCODING 233
SWIDTH 33000 0
DWIDTH 32 0
BBX 32 48 0 -10
BITMAP
00000000
00000000
00000000
00000000
00000000
00000000
00000000
00000000
00000000
00000000
00000000
00000000
00000000
00001000
00003000
00006000
00004000
00000000
00000000
00000000
00000000
00000000
000FC000
00182000
00302000
00202000
0038E000
002F8000
00200000
00300000
00100000
000C0000
00070000
00000000
00000000
00000000
00000000
00000000
00000000
00000000
00000000
00000000
00000000
00000000
00000000
00000000
00000000
00000000
ENDCHAR
STARTCHAR U+00EA
ENCODING 234
SWIDTH 33000 0
DWIDTH 32 0
BBX 32 48 0 -10
BITMAP
00000000
00000000
00000000
00000000
00000000
00000000
00000000
00000000
00000000
00000000
00000000
00000000
00018000
00028000
000C4000
00182000
00002000
00000000
00038000
000DE000
00082000
00082000
00084000
0008C000
000B8000
000E0000
00080000
00040000
00060000
00038000
0000E000
00000000
00000000
00000000
00000000
00000000
00000000
00000000
00000000
00000000
00000000
00000000
00000000
00000000
00000000
00000000
00000000
00000000
ENDCHAR
STARTCHAR U+00EB
ENCODING 235
SWIDTH 33000 0
DWIDTH 32 0
BBX 32 48 0 -10
BITMAP
00000000
00000000
00000000
00000000
00000000
00000000
00000000
00000000
00000000
00000000
00000000
00000000
00000000
00000000
00000000
00000000
0018C000
001CC000
00004000
00000000
000E0000
00110000
00308000
00204000
00204000
00604000
00618000
00630000
005C0000
00300000
00300000
00180000
00080000
00060000
00038000
0000C000
00000000
00000000
00000000
00000000
00000000
00000000
00000000
00000000
00000000
00000000
00000000
00000000
ENDCHAR
STARTCHAR U+00EC
ENCODING 236
SWIDTH 33000 0
DWIDTH 32 0
BBX 32 48 0 -10
BITMAP
00000000
00000000
00000000
00000000
00000000
00000000
00000000
00000000
00000000
00000000
00000000
00000000
00000000
00000000
00180000
00040000
00020000
00000000
000E0000
00030000
00010000
00010000
00010000
00010000
00010000
00010000
00010000
00018000
00008000
00008000
00010000
00010000
00008000
0000C000
00006000
00002000
00000000
00000000
00000000
00000000
00000000
00000000
00000000
00000000
00000000
00000000
00000000
00000000
ENDCHAR
STARTCHAR U+00ED
ENCODING 237
SWIDTH 33000 0
DWIDTH 32 0
BBX 32 48 0 -10
BITMAP
00000000
00000000
00000000
00000000
00000000
00000000
00000000
00000000
00000000
00000000
00000000
00000000
00000000
00000000
00000000
00002000
0001C000
00180000
000C0000
00020000
00010000
00010000
00010000
00010000
00010000
00010000
00010000
00010000
00020000
00020000
00010000
00010000
00018000
00008000
00006000
00006000
00000000
00000000
00000000
00000000
00000000
00000000
00000000
00000000
00000000
00000000
00000000
00000000
ENDCHAR
STARTCHAR U+00EE
ENCODING 238
SWIDTH 33000 0
DWIDTH 32 0
BBX 32 48 0 -10
BITMAP
00000000
00000000
00000000
00000000
00000000
00000000
00000000
00000000
00000000
00000000
00000000
00000000
00000000
00000000
00020000
00060000
00050000
00098000
00008000
00000000
00180000
00080000
00040000
00040000
00040000
00040000
00040000
00040000
00040000
00040000
00020000
00020000
00030000
00010000
00018000
0000C000
00006000
00000000
00000000
00000000
00000000
00000000
00000000
00000000
00000000
00000000
00000000
00000000
ENDCHAR
STARTCHAR U+00EF
ENCODING 239
SWIDTH 33000 0
DWIDTH 32 0
BBX 32 48 0 -10
BITMAP
00000000
00000000
00000000
00000000
00000000
00000000
00000000
00000000
00000000
00000000
00300000
003B0000
00330000
00030000
00000000
00000000
00100000
00080000
00040000
00040000
00080000
00080000
00080000
00080000
00080000
00080000
00080000
00080000
00080000
00080000
000C0000
00040000
00040000
00030000
0001C000
00000000
00000000
00000000
00000000
00000000
00000000
00000000
00000000
00000000
00000000
00000000
00000000
00000000
ENDCHAR
STARTCHAR U+00F0
ENCODING 240
SWIDTH 33000 0
DWIDTH 32 0
BBX 32 48 0 -10
BITMAP
00000000
00000000
00000000
00000000
00000000
00000000
00000000
00000000
00000000
00000000
00000000
00000000
00000000
00000000
00000000
00000000
00030000
00019000
0000F000
00034000
00022000
00003000
0003F000
00061800
00180C00
00300400
00200800
00200800
00301800
00181000
000FE000
00000000
00000000
00000000
00000000
00000000
00000000
00000000
00000000
00000000
00000000
00000000
00000000
00000000
00000000
00000000
00000000
00000000
ENDCHAR
STARTCHAR U+00F1
ENCODING 241
SWIDTH 33000 0
DWIDTH 32 0
BBX 32 48 0 -10
BITMAP
00000000
00000000
00000000
00000000
00000000
00000000
00000000
00000000
00000000
00000000
00000000
00000000
00000000
00000000
00180000
003C0C00
00023E00
0001E000
00000000
00000000
00400000
004E0000
00338000
0060C000
00606000
00402000
00403000
00401000
00401000
00401000
00401000
00002000
00000000
00000000
00000000
00000000
00000000
00000000
00000000
00000000
00000000
00000000
00000000
00000000
00000000
00000000
00000000
00000000
ENDCHAR
STARTCHAR U+00F2
ENCODING 242
SWIDTH 33000 0
DWIDTH 32 0
BBX 32 48 0 -10
BITMAP
00000000
00000000
00000000
00000000
00000000
00000000
00000000
00000000
00000000
00000000
00000000
01000000
00800000
00600000
00000000
00000000
00000000
00000000
00070000
00078000
00084000
00103000
00301000
00201800
00600800
00400800
00401800
00201000
00201000
00201000
00302000
0018C000
000F8000
00000000
00000000
00000000
00000000
00000000
00000000
00000000
00000000
00000000
00000000
00000000
00000000
00000000
00000000
00000000
ENDCHAR
STARTCHAR U+00F3
ENCODING 243
SWIDTH 33000 0
DWIDTH 32 0
BBX 32 48 0 -10
BITMAP
00000000
00000000
00000000
00000000
00000000
00000000
00000000
00000000
00000000
00000000
00000000
00000000
00000000
00000000
00000000
00000600
00001C00
00000000
00000000
0000C000
0007E000
00042000
00082000
00081000
00081000
00101000
00101000
00101000
00101000
00081000
00086000
0004C000
00038000
00000000
00000000
00000000
00000000
00000000
00000000
00000000
00000000
00000000
00000000
00000000
00000000
00000000
00000000
00000000
ENDCHAR
STARTCHAR U+00F4
ENCODING 244
SWIDTH 33000 0
DWIDTH 32 0
BBX 32 48 0 -10
BITMAP
00000000
00000000
00000000
00000000
00000000
00000000
00000000
00000000
00000000
00000000
00000000
00000000
00000000
00020000
000D0000
00098000
0010C000
00004000
00002000
00000000
00058000
001AE000
00103000
00200800
00200C00
00200400
00200800
00200800
00101000
00083000
00086000
0007C000
00010000
00000000
00000000
00000000
00000000
00000000
00000000
00000000
00000000
00000000
00000000
00000000
00000000
00000000
00000000
00000000
ENDCHAR
STARTCHAR U+00F5
ENCODING 245
SWIDTH 33000 0
DWIDTH 32 0
BBX 32 48 0 -10
BITMAP
00000000
00000000
00000000
00000000
00000000
00000000
00000000
00000000
00000000
00000000
00000000
00000000
00000000
00380000
006C0000
00063C00
0003E000
00018000
00000000
00070000
0019E000
00203000
00401000
00400800
00800800
00800800
00800800
00801800
00801000
00801000
00401000
00603000
00306000
00104000
000F8000
00000000
00000000
00000000
00000000
00000000
00000000
00000000
00000000
00000000
00000000
00000000
00000000
00000000
ENDCHAR
STARTCHAR U+00F6
ENCODING 246
SWIDTH 33000 0
DWIDTH 32 0
BBX 32 48 0 -10
BITMAP
00000000
00000000
00000000
00000000
00000000
00000000
00000000
00000000
00000000
00000000
00000000
00000000
00000000
00200000
00703800
00783C00
00783C00
00701C00
00000000
00002000
0007D800
000C0C00
00100400
00100600
00300200
00200200
00200200
00200200
00100200
00100200
00080600
00080C00
000E1000
0003E000
00000000
00000000
00000000
00000000
00000000
00000000
00000000
00000000
00000000
00000000
00000000
00000000
00000000
00000000
ENDCHAR
STARTCHAR U+00F7
ENCODING 247
SWIDTH 33000 0
DWIDTH 32 0
BBX 32 48 0 -10
BITMAP
00000000
00000000
00000000
00000000
00000000
00000000
00000000
00000000
00000000
00000000
00000000
00000000
00000000
00000000
00000000
00000000
00000000
00018000
00038000
00078000
00038000
00000000
00000000
00000000
00FFFF00
00000000
00000000
0003C000
0003C000
00038000
00000000
00000000
00000000
00000000
00000000
00000000
00000000
00000000
00000000
00000000
00000000
00000000
00000000
00000000
00000000
00000000
00000000
00000000
ENDCHAR
STARTCHAR U+00F8
ENCODING 248
SWIDTH 33000 0
DWIDTH 32 0
BBX 32 48 0 -10
BITMAP
00000000
00000000
00000000
00000000
00000000
00000000
00000000
00000000
00000000
00000000
00000000
00000000
00000000
00000000
00000000
00000400
00000C00
0003C800
000C3000
00107000
00305800
0020C800
00218400
00210400
00420400
00460400
00440400
002C0400
00380800
00301000
00381000
0044F000
00C30000
00800000
00000000
00000000
00000000
00000000
00000000
00000000
00000000
00000000
00000000
00000000
00000000
00000000
00000000
00000000
ENDCHAR
STARTCHAR U+00F9
ENCODING 249
SWIDTH 33000 0
DWIDTH 32 0
BBX 32 48 0 -10
BITMAP
00000000
00000000
00000000
00000000
00000000
00000000
00000000
00000000
00000000
00000000
00000000
00000000
00000000
00000000
00000000
00300000
00180000
000E0000
00020000
00001000
00201000
00201000
00201000
00201000
00401000
00402000
00402000
00402000
00402000
00402000
00202000
00206000
0010C000
001F0000
00000000
00000000
00000000
00000000
00000000
00000000
00000000
00000000
00000000
00000000
00000000
00000000
00000000
00000000
ENDCHAR
STARTCHAR U+00FA
ENCODING 250
SWIDTH 33000 0
DWIDTH 32 0
BBX 32 48 0 -10
BITMAP
00000000
00000000
00000000
00000000
00000000
00000000
00000000
00000000
00000000
00000000
00000000
00000000
00000000
00000000
00000000
00000000
00000000
00000000
00008000
00008000
00010000
00030000
00200000
00404000
00404000
00206000
00202000
00204000
00208000
00218000
00110000
001E0000
00000000
00000000
00000000
00000000
00000000
00000000
00000000
00000000
00000000
00000000
00000000
00000000
00000000
00000000
00000000
00000000
ENDCHAR
STARTCHAR U+00FB
ENCODING 251
SWIDTH 33000 0
DWIDTH 32 0
BBX 32 48 0 -10
BITMAP
00000000
00000000
00000000
00000000
00000000
00000000
00000000
00000000
00000000
00000000
00000000
00000000
00000000
00000000
00000000
00004000
00006000
0001A000
00022000
00042000
00000000
00000000
00200000
00200400
00200400
00200400
00200400
00200400
00200400
00300400
00100400
00180C00
000C3800
0003C000
00000000
00000000
00000000
00000000
00000000
00000000
00000000
00000000
00000000
00000000
00000000
00000000
00000000
00000000
ENDCHAR
STARTCHAR U+00FC
ENCODING 252
SWIDTH 33000 0
DWIDTH 32 0
BBX 32 48 0 -10
BITMAP
00000000
00000000
00000000
00000000
00000000
00000000
00000000
00000000
00000000
00000000
00000000
00000000
00000000
00000000
00000000
00001000
000E3000
000E1000
00040000
00000000
00000000
00000000
00300000
00202000
00202000
00206000
00206000
00202000
00202000
00202000
00104000
00104000
000D8000
00070000
00000000
00000000
00000000
00000000
00000000
00000000
00000000
00000000
00000000
00000000
00000000
00000000
00000000
00000000
ENDCHAR
STARTCHAR U+00FD
ENCODING 253
SWIDTH 33000 0
DWIDTH 32 0
BBX 32 48 0 -10
BITMAP
00000000
00000000
00000000
00000000
00000000
00000000
00000000
00000000
00000000
00000000
00000000
00000000
00000000
00000000
00000000
00000000
00003800
00002000
00004000
00000000
00080000
00081000
00082000
00086000
00088000
00090000
000A0000
000E0000
000C0000
00040000
00040000
000C0000
00080000
00380000
00200000
00000000
00000000
00000000
00000000
00000000
00000000
00000000
00000000
00000000
00000000
00000000
00000000
00000000
ENDCHAR
STARTCHAR U+00FE
ENCODING 254
SWIDTH 33000 0
DWIDTH 32 0
BBX 32 48 0 -10
BITMAP
00000000
00000000
00000000
00000000
00000000
00000000
00000000
00000000
00000000
00000000
00000000
00000000
00000000
00000000
00000000
00000000
00000000
00000000
00000000
00000000
00080000
00080000
000E0000
00090000
00098000
00088000
00088000
00090000
000E0000
00080000
00080000
00080000
00080000
00000000
00000000
00000000
00000000
00000000
00000000
00000000
00000000
00000000
00000000
00000000
00000000
00000000
00000000
00000000
ENDCHAR
STARTCHAR U+00FF
ENCODING 255
SWIDTH 33000 0
DWIDTH 32 0
BBX 32 48 0 -10
BITMAP
00000000
00000000
00000000
00000000
00000000
00000000
00000000
00000000
00000000
00000000
00000000
00000000
00000000
00000000
00000000
00000000
00000000
00180000
00198000
00018000
00018000
00000000
00000000
00102000
0010E000
000BA000
000A0000
000C0000
00080000
00080000
00080000
00080000
00080000
00100000
00600000
00000000
00000000
00000000
00000000
00000000
00000000
00000000
00000000
00000000
00000000
00000000
00000000
00000000
ENDCHAR
STARTCHAR U+010C
ENCODING 268
SWIDTH 33000 0
DWIDTH 32 0
BBX 32 48 0 -10
BITMAP
00000000
00000000
00000000
00180100
00080700
000C0C00
00041800
00026000
00038000
00000000
00000000
00000000
0007C000
00180000
00300000
00200000
00400000
00400000
00400000
00400000
00400000
00400000
00400000
00400000
00400000
00400000
00400000
00400000
00400000
00400000
00200000
00200000
00100000
00180000
00070000
0000F000
00000000
00000000
00000000
00000000
00000000
00000000
00000000
00000000
00000000
00000000
00000000
00000000
ENDCHAR
STARTCHAR U+010D
ENCODING 269
SWIDTH 33000 0
DWIDTH 32 0
BBX 32 48 0 -10
BITMAP
00000000
00000000
00000000
00000000
00000000
00000000
00000000
00000000
00000000
00000000
00000000
00000000
00000000
00000000
00060000
00020000
00030C00
0001F800
00000000
00000000
00000000
0001C000
00034000
00040000
00080000
00100000
00100000
00100000
00100000
00100000
00080000
000C0000
00030000
0001C000
00000000
00000000
00000000
00000000
00000000
00000000
00000000
00000000
00000000
00000000
00000000
00000000
00000000
00000000
ENDCHAR
STARTCHAR U+010E
ENCODING 270
SWIDTH 33000 0
DWIDTH 32 0
BBX 32 48 0 -10
BITMAP
00000000
00000000
00080800
00041800
00043000
00026000
0003C000
00030000
00000000
00000000
00000000
007C0000
00460000
00418000
00406000
00203000
00201000
00200C00
00200400
00200400
00200400
00200400
00400C00
00400800
00201800
00601000
00402000
00806000
0080C000
00808000
00830000
00860000
00980000
00B00000
00A00000
00400000
00000000
00000000
00000000
00000000
00000000
00000000
00000000
00000000
00000000
00000000
00000000
00000000
ENDCHAR
STARTCHAR U+010F
ENCODING 271
SWIDTH 33000 0
DWIDTH 32 0
BBX 32 48 0 -10
BITMAP
00000000
00000000
00000000
00000000
00000000
00000000
00000000
00000000
00000000
00000000
00000000
00000000
00000000
00000000
00000000
00000000
00000000
00000000
00002100
00002100
00002200
00002400
00002000
00006000
0003E000
00066000
00046000
0004A000
0008A000
0008A000
0008A000
00092000
000B2000
00062000
00002000
00000000
00000000
00000000
00000000
00000000
00000000
00000000
00000000
00000000
00000000
00000000
00000000
00000000
ENDCHAR
STARTCHAR U+013D
ENCODING 317
SWIDTH 33000 0
DWIDTH 32 0
BBX 32 48 0 -10
BITMAP
00000000
00000000
00000000
00000000
00000000
00000000
00000000
00000000
00000000
00000000
00000000
00000000
00200000
0020C000
00608000
00418000
00410000
00430000
00400000
00400000
00400000
00400000
00C00000
00800000
00800000
00800000
00800000
00800000
00800000
00800000
00800000
00800000
00800000
00800000
00C00000
007FF800
00000C00
00000300
00000000
00000000
00000000
00000000
00000000
00000000
00000000
00000000
00000000
00000000
ENDCHAR
STARTCHAR U+013E
ENCODING 318
SWIDTH 33000 0
DWIDTH 32 0
BBX 32 48 0 -10
BITMAP
00000000
00000000
00000000
00000000
00000000
00000000
00000000
00000000
00000000
00000000
00000000
00000000
00000000
00000000
00000000
000C1000
00041000
00061000
00023000
00026000
00030000
00010000
00010000
00010000
00010000
00010000
00010000
00010000
00030000
00020000
00020000
00020000
00020000
00020000
00020000
00020000
00010000
00008000
00000000
00000000
00000000
00000000
00000000
00000000
00000000
00000000
00000000
00000000
ENDCHAR
STARTCHAR U+0147
ENCODING 327
SWIDTH 33000 0
DWIDTH 32 0
BBX 32 48 0 -10
BITMAP
00000000
00000000
00000000
00000000
00081000
00087000
000DC000
00030000
00000000
00202000
00202000
00502000
00582000
00482000
00482000
00482000
00442000
00442000
00442000
00822000
00822000
00826000
00834000
00814000
00814000
01014000
0101C000
01018000
01018000
0101C000
0100C000
01008000
01008000
02000000
00000000
00000000
00000000
00000000
00000000
00000000
00000000
00000000
00000000
00000000
00000000
00000000
00000000
00000000
ENDCHAR
STARTCHAR U+0148
ENCODING 328
SWIDTH 33000 0
DWIDTH 32 0
BBX 32 48 0 -10
BITMAP
00000000
00000000
00000000
00000000
00000000
00000000
00000000
00000000
00000000
00000000
00000000
00000000
00000000
00000000
00000000
00000000
00021000
00023000
0001E000
00000000
00000000
00200000
00200000
0023C000
002E6000
00283000
00301000
00201000
00201000
00401000
00401800
00401000
00400000
00000000
00000000
00000000
00000000
00000000
00000000
00000000
00000000
00000000
00000000
00000000
00000000
00000000
00000000
00000000
ENDCHAR
STARTCHAR U+0158
ENCODING 344
SWIDTH 33000 0
DWIDTH 32 0
BBX 32 48 0 -10
BITMAP
00000000
00000000
00000000
00000000
00000000
00000000
00000000
00081000
00083000
00046000
0003C000
00000000
00000000
00000000
003E0000
00210000
00608000
0040C000
00404000
00404000
00418000
00420000
004C0000
00780000
00600000
00700000
00580000
00460000
00430000
00418000
0040C000
00406000
00402000
00C02000
00800000
00800000
00000000
00000000
00000000
00000000
00000000
00000000
00000000
00000000
00000000
00000000
00000000
00000000
ENDCHAR
STARTCHAR U+0159
ENCODING 345
SWIDTH 33000 0
DWIDTH 32 0
BBX 32 48 0 -10
BITMAP
00000000
00000000
00000000
00000000
00000000
00000000
00000000
00000000
00000000
00000000
00000000
00000000
00000000
00000000
00000000
00000000
00020000
0003C000
00000000
00000000
00000000
00080000
000BC000
000E6000
000C0000
00080000
00080000
00180000
00100000
00100000
00000000
00000000
00000000
00000000
00000000
00000000
00000000
00000000
00000000
00000000
00000000
00000000
00000000
00000000
00000000
00000000
00000000
00000000
ENDCHAR
STARTCHAR U+0160
ENCODING 352
SWIDTH 33000 0
DWIDTH 32 0
BBX 32 48 0 -10
BITMAP
00000000
00000000
00000000
00000000
00000000
00040000
00040000
00060000
0003F800
00000000
00000000
000F0000
00188000
00200000
00200000
00200000
00200000
00200000
00100000
000C0000
00060000
00018000
0000C000
00006000
00003000
00001000
00001000
00001000
00002000
0009C000
000F0000
00000000
00000000
00000000
00000000
00000000
00000000
00000000
00000000
00000000
00000000
00000000
00000000
00000000
00000000
00000000
00000000
00000000
ENDCHAR
STARTCHAR U+0161
ENCODING 353
SWIDTH 33000 0
DWIDTH 32 0
BBX 32 48 0 -10
BITMAP
00000000
00000000
00000000
00000000
00000000
00000000
00000000
00000000
00000000
00000000
00000000
00000000
00000000
00000000
00000000
00000000
00000000
00020000
00020800
0001F000
00000000
00000000
00000000
00000000
0003C000
00040000
00040000
00070000
00008000
00006000
00003000
00001000
00001000
00003000
0003E000
00000000
00000000
00000000
00000000
00000000
00000000
00000000
00000000
00000000
00000000
00000000
00000000
00000000
ENDCHAR
STARTCHAR U+0164
ENCODING 356
SWIDTH 33000 0
DWIDTH 32 0
BBX 32 48 0 -10
BITMAP
00000000
00000000
00000000
00000000
00000000
00000000
00000000
00080000
00080800
00061800
0003F000
00000000
00000000
00000000
0003C000
03FE3F00
00020180
00020000
00020000
00020000
00020000
00020000
00020000
00020000
00020000
00020000
00020000
00020000
00020000
00020000
00020000
00020000
00020000
00060000
00040000
00040000
00040000
00000000
00000000
00000000
00000000
00000000
00000000
00000000
00000000
00000000
00000000
00000000
ENDCHAR
STARTCHAR U+0165
ENCODING 357
SWIDTH 33000 0
DWIDTH 32 0
BBX 32 48 0 -10
BITMAP
00000000
00000000
00000000
00000000
00000000
00000000
00000000
00000000
00000000
00000000
00000000
00000000
00000000
00000000
00010400
00010400
00018800
0000B800
00008000
00008000
003C8000
0007F000
00010000
00010000
00010000
00010000
00010000
00020000
00020000
00020000
00020000
00020000
00020000
00020000
00000000
00000000
00000000
00000000
00000000
00000000
00000000
00000000
00000000
00000000
00000000
00000000
00000000
00000000
ENDCHAR
STARTCHAR U+017D
ENCODING 381
SWIDTH 33000 0
DWIDTH 32 0
BBX 32 48 0 -10
BITMAP
00000000
00000000
00000000
00000000
00000000
00000000
00000000
00080000
00081000
000C6000
0007C000
00000000
00000000
00000000
00000000
00007800
00FFCC00
00000800
00001000
00001000
00002000
00006000
00004000
00004000
00008000
00010000
00010000
00020000
00020000
00040000
00080000
00180000
00300000
00200000
00E00000
00B80000
000F8000
00007000
00001000
00000000
00000000
00000000
00000000
00000000
00000000
00000000
00000000
00000000
ENDCHAR
STARTCHAR U+017E
ENCODING 382
SWIDTH 33000 0
DWIDTH 32 0
BBX 32 48 0 -10
BITMAP
00000000
00000000
00000000
00000000
00000000
00000000
00000000
00000000
00000000
00000000
00000000
00000000
00000000
00000000
00000000
00020000
00021800
0003E000
00000000
00000000
00000000
00380000
007FE000
00003000
00002000
00006000
0000C000
00018000
00030000
00060000
00080000
00300000
00600000
00400000
00400000
00600000
003C0000
00038000
00000000
00000000
00000000
00000000
00000000
00000000
00000000
00000000
00000000
00000000
ENDCHAR
STARTCHAR U+03C0
ENCODING 960
SWIDTH 33000 0
DWIDTH 32 0
BBX 32 48 0 -10
BITMAP
00000000
00000000
00000000
00000000
00000000
00000000
00000000
00000000
00000000
00000000
00000000
00000000
00000000
00000000
00000000
00000000
00000000
00000000
00000000
00000000
00000000
00000000
00FFF000
00204000
00204000
00204000
00204000
00204000
00204000
00202000
00203000
00201800
00000000
00000000
00000000
00000000
00000000
00000000
00000000
00000000
00000000
00000000
00000000
00000000
00000000
00000000
00000000
00000000
ENDCHAR
STARTCHAR U+2013
ENCODING 8211
SWIDTH 33000 0
DWIDTH 32 0
BBX 32 48 0 -10
BITMAP
00000000
00000000
00000000
00000000
00000000
00000000
00000000
00000000
00000000
00000000
00000000
00000000
00000000
00000000
00000000
00000000
00000000
00000000
00000000
00000000
00000000
00000000
00000000
03FFFFC0
00000000
00000000
00000000
00000000
00000000
00000000
00000000
00000000
00000000
00000000
00000000
00000000
00000000
00000000
00000000
00000000
00000000
00000000
00000000
00000000
00000000
00000000
00000000
00000000
ENDCHAR
STARTCHAR U+2014
ENCODING 8212
SWIDTH 33000 0
DWIDTH 32 0
BBX 32 48 0 -10
BITMAP
00000000
00000000
00000000
00000000
00000000
00000000
00000000
00000000
00000000
00000000
00000000
00000000
00000000
00000000
00000000
00000000
00000000
00000000
00000000
00000000
00000000
00000000
00000000
FFFFFFFF
00000000
00000000
00000000
00000000
00000000
00000000
00000000
00000000
00000000
00000000
00000000
00000000
00000000
00000000
00000000
00000000
00000000
00000000
00000000
00000000
00000000
00000000
00000000
00000000
ENDCHAR
STARTCHAR U+2018
ENCODING 8216
SWIDTH 33000 0
DWIDTH 32 0
BBX 32 48 0 -10
BITMAP
00000000
00000000
00000000
00000000
00000000
00000000
00400000
00400000
00400000
00800000
00800000
01800000
03000000
07000000
02000000
00000000
00000000
00000000
00000000
00000000
00000000
00000000
00000000
00000000
00000000
00000000
00000000
00000000
00000000
00000000
00000000
00000000
00000000
00000000
00000000
00000000
00000000
00000000
00000000
00000000
00000000
00000000
00000000
00000000
00000000
00000000
00000000
00000000
ENDCHAR
STARTCHAR U+2019
ENCODING 8217
SWIDTH 33000 0
DWIDTH 32 0
BBX 32 48 0 -10
BITMAP
00000000
00000000
00000000
00000008
00000018
00000018
00000038
00000010
00000020
00000040
00000080
00000180
00000000
00000000
00000000
00000000
00000000
00000000
00000000
00000000
00000000
00000000
00000000
00000000
00000000
00000000
00000000
00000000
00000000
00000000
00000000
00000000
00000000
00000000
00000000
00000000
00000000
00000000
00000000
00000000
00000000
00000000
00000000
00000000
00000000
00000000
00000000
00000000
ENDCHAR
STARTCHAR U+201C
ENCODING 8220
SWIDTH 33000 0
DWIDTH 32 0
BBX 32 48 0 -10
BITMAP
00000000
00000000
00000000
00000000
00000000
01000000
01080000
02080000
02080000
02080000
06180000
0C100000
0C300000
08600000
00600000
00000000
00000000
00000000
00000000
00000000
00000000
00000000
00000000
00000000
00000000
00000000
00000000
00000000
00000000
00000000
00000000
00000000
00000000
00000000
00000000
00000000
00000000
00000000
00000000
00000000
00000000
00000000
00000000
00000000
00000000
00000000
00000000
00000000
ENDCHAR
STARTCHAR U+201D
ENCODING 8221
SWIDTH 33000 0
DWIDTH 32 0
BBX 32 48 0 -10
BITMAP
00000000
00000000
00000000
00000000
00000080
00000180
0000018C
0000018C
00000108
00000208
00000618
00000C30
00000060
000000C0
00000000
00000000
00000000
00000000
00000000
00000000
00000000
00000000
00000000
00000000
00000000
00000000
00000000
00000000
00000000
00000000
00000000
00000000
00000000
00000000
00000000
00000000
00000000
00000000
00000000
00000000
00000000
00000000
00000000
00000000
00000000
00000000
00000000
00000000
ENDCHAR
STARTCHAR U+2026
ENCODING 8230
SWIDTH 33000 0
DWIDTH 32 0
BBX 32 48 0 -10
BITMAP
00000000
00000000
00000000
00000000
00000000
00000000
00000000
00000000
00000000
00000000
00000000
00000000
00000000
00000000
00000000
00000000
00000000
00000000
00000000
00000000
00000000
00000000
00000000
00000000
00000000
00000000
00000000
00000000
00000000
00000000
00000000
00000000
00E18600
01E3C700
00C18600
00000000
00000000
00000000
00000000
00000000
00000000
00000000
00000000
00000000
00000000
00000000
00000000
00000000
ENDCHAR
STARTCHAR U+20AC
ENCODING 8364
SWIDTH 33000 0
DWIDTH 32 0
BBX 32 48 0 -10
BITMAP
00000000
00000000
00000000
00000000
00000000
00000000
00000000
00000000
0001F000
00030000
00040000
00080000
00180000
00300000
00200000
00400000
00400000
00F00000
004FF000
00400000
00400000
00400000
00400000
01400000
00FFC000
00407000
00200000
00200000
00200000
00200000
00100000
00180000
00080000
00060000
0001E000
00000000
00000000
00000000
00000000
00000000
00000000
00000000
00000000
00000000
00000000
00000000
00000000
00000000
ENDCHAR
STARTCHAR U+20B9
ENCODING 8377
SWIDTH 33000 0
DWIDTH 32 0
BBX 32 48 0 -10
BITMAP
00000000
00000000
00000000
00000000
00000000
00000000
00000000
00000000
00000000
00000000
00000000
00000000
00000000
00000000
00000000
003FFC00
00008000
00008000
00008000
003FFC00
00010000
00010000
00030000
00060000
00780000
007F0000
0001C000
00004000
00002000
00003000
00001000
00001800
00000800
00000800
00000000
00000000
00000000
00000000
00000000
00000000
00000000
00000000
00000000
00000000
00000000
00000000
00000000
00000000
ENDCHAR
STARTCHAR U+20BD
ENCODING 8381
SWIDTH 33000 0
DWIDTH 32 0
BBX 32 48 0 -10
BITMAP
00000000
00000000
00000000
00000000
00000000
00000000
00000000
00000000
00000000
00078000
00384000
00203000
00201800
00200C00
00200400
00300400
00100800
00103000
0010E000
00170000
007FF800
00100000
00100000
007FF800
00100000
00100000
00100000
00100000
00100000
00100000
00000000
00000000
00000000
00000000
00000000
00000000
00000000
00000000
00000000
00000000
00000000
00000000
00000000
00000000
00000000
00000000
00000000
00000000
ENDCHAR
STARTCHAR U+2122
ENCODING 8482
SWIDTH 33000 0
DWIDTH 32 0
BBX 32 48 0 -10
BITMAP
00000000
00000000
00000000
00000000
00000000
00000000
00000000
00000000
00000000
07C84000
010EC000
010BE000
010B2000
01082000
01082000
00000000
00000000
00000000
00000000
00000000
00000000
00000000
00000000
00000000
00000000
00000000
00000000
00000000
00000000
00000000
00000000
00000000
00000000
00000000
00000000
00000000
00000000
00000000
00000000
00000000
00000000
00000000
00000000
00000000
00000000
00000000
00000000
00000000
ENDCHAR
STARTCHAR U+2190
ENCODING 8592
SWIDTH 33000 0
DWIDTH 32 0
BBX 32 48 0 -10
BITMAP
00000000
00000000
00000000
00000000
00000000
00000000
00000000
00000000
00000000
00000000
00000000
00000000
00000000
00000000
00000000
00000000
00000000
00000000
00000000
00000000
00700000
00C00000
01800000
03000000
03FFFFE0
03000000
01C00000
00600000
00300000
00000000
00000000
00000000
00000000
00000000
00000000
00000000
00000000
00000000
00000000
00000000
00000000
00000000
00000000
00000000
00000000
00000000
00000000
00000000
ENDCHAR
STARTCHAR U+2191
ENCODING 8593
SWIDTH 33000 0
DWIDTH 32 0
BBX 32 48 0 -10
BITMAP
00000000
00000000
00000000
00000000
00000000
00000000
00000000
00000000
00000000
00000000
00000000
00000000
00000000
00030000
0007C000
000D4000
00196000
00313000
00010000
00010000
00010000
00010000
00010000
00010000
00010000
00010000
00010000
00010000
00010000
00010000
00010000
00000000
00000000
00000000
00000000
00000000
00000000
00000000
00000000
00000000
00000000
00000000
00000000
00000000
00000000
00000000
00000000
00000000
ENDCHAR
STARTCHAR U+2192
ENCODING 8594
SWIDTH 33000 0
DWIDTH 32 0
BBX 32 48 0 -10
BITMAP
00000000
00000000
00000000
00000000
00000000
00000000
00000000
00000000
00000000
00000000
00000000
00000000
00000000
00000000
00000000
00000000
00000000
00000000
00000000
00001000
00000C00
00000600
00000200
00000100
0FFFFF00
00000300
00000600
00000800
00001000
00000000
00000000
00000000
00000000
00000000
00000000
00000000
00000000
00000000
00000000
00000000
00000000
00000000
00000000
00000000
00000000
00000000
00000000
00000000
ENDCHAR
STARTCHAR U+2193
ENCODING 8595
SWIDTH 33000 0
DWIDTH 32 0
BBX 32 48 0 -10
BITMAP
00000000
00000000
00000000
00000000
00000000
00000000
00000000
00000000
00000000
00000000
00010000
00010000
00010000
00010000
00010000
00010000
00010000
00010000
00010000
00010000
00010000
00010000
00010000
00010000
00010000
00611800
00313000
00192000
00094000
0005C000
00038000
00000000
00000000
00000000
00000000
00000000
00000000
00000000
00000000
00000000
00000000
00000000
00000000
00000000
00000000
00000000
00000000
00000000
ENDCHAR
STARTCHAR U+2194
ENCODING 8596
SWIDTH 33000 0
DWIDTH 32 0
BBX 32 48 0 -10
BITMAP
00000000
00000000
00000000
00000000
00000000
00000000
00000000
00000000
00000000
00000000
00000000
00000000
00000000
00000000
00000000
00000000
00000000
00000000
00000000
00600600
00400300
00800180
018000C0
03FFFFE0
01800060
00C00040
00600080
00200080
00000100
00000000
00000000
00000000
00000000
00000000
00000000
00000000
00000000
00000000
00000000
00000000
00000000
00000000
00000000
00000000
00000000
00000000
00000000
00000000
ENDCHAR
STARTCHAR U+2195
ENCODING 8597
SWIDTH 33000 0
DWIDTH 32 0
BBX 32 48 0 -10
BITMAP
00000000
00000000
00000000
00000000
00000000
00000000
00000000
00000000
00038000
000DC000
00197000
00211000
00010000
00010000
00010000
00010000
00010000
00010000
00010000
00010000
00010000
00010000
00010000
00010000
00010000
00010000
00210000
00113800
00096000
000DC000
00038000
00000000
00000000
00000000
00000000
00000000
00000000
00000000
00000000
00000000
00000000
00000000
00000000
00000000
00000000
00000000
00000000
00000000
ENDCHAR
STARTCHAR U+21D0
ENCODING 8656
SWIDTH 33000 0
DWIDTH 32 0
BBX 32 48 0 -10
BITMAP
00000000
00000000
00000000
00000000
00000000
00000000
00000000
00000000
00000000
00000000
00000000
00000000
00000000
00000000
00000000
00000000
00060000
001E0000
003C0000
00780000
00F80000
01F00000
03FFFFE0
03FFFFE0
07FFFFE0
07C00000
03E00000
01F00000
00F00000
00F00000
00780000
00380000
00000000
00000000
00000000
00000000
00000000
00000000
00000000
00000000
00000000
00000000
00000000
00000000
00000000
00000000
00000000
00000000
ENDCHAR
STARTCHAR U+21D2
ENCODING 8658
SWIDTH 33000 0
DWIDTH 32 0
BBX 32 48 0 -10
BITMAP
00000000
00000000
00000000
00000000
00000000
00000000
00000000
00000000
00000000
00000000
00000000
00000000
00000000
00000000
00000000
00000000
00000000
00001C00
00001C00
00001E00
00000F00
07FFFF00
07FFFF80
07FFFF80
00000F00
00001E00
00001E00
00003C00
00003800
00000000
00000000
00000000
00000000
00000000
00000000
00000000
00000000
00000000
00000000
00000000
00000000
00000000
00000000
00000000
00000000
00000000
00000000
00000000
ENDCHAR
STARTCHAR U+21D4
ENCODING 8660
SWIDTH 33000 0
DWIDTH 32 0
BBX 32 48 0 -10
BITMAP
00000000
00000000
00000000
00000000
00000000
00000000
00000000
00000000
00000000
00000000
00000000
00000000
00000000
00000000
00000000
00000000
00000000
00C00000
03600000
06200780
084006C0
08400260
10800130
30FFFF18
60000008
2000000C
30FFFF0C
10800118
18400310
0C400360
078001C0
02000000
00000000
00000000
00000000
00000000
00000000
00000000
00000000
00000000
00000000
00000000
00000000
00000000
00000000
00000000
00000000
00000000
ENDCHAR
STARTCHAR U+221A
ENCODING 8730
SWIDTH 33000 0
DWIDTH 32 0
BBX 32 48 0 -10
BITMAP
00000000
00000000
00000000
00000000
00000000
00000000
00000000
00000000
00000000
00000000
00000040
00000040
000000C0
00000080
00000100
00000100
00000100
00000200
00000200
00000200
00000200
00000400
00000400
00000400
00000800
00F81000
000C1000
00041000
00062000
00024000
00024000
00034000
00018000
00018000
00000000
00000000
00000000
00000000
00000000
00000000
00000000
00000000
00000000
00000000
00000000
00000000
00000000
00000000
ENDCHAR
STARTCHAR U+221E
ENCODING 8734
SWIDTH 33000 0
DWIDTH 32 0
BBX 32 48 0 -10
BITMAP
00000000
00000000
00000000
00000000
00000000
00000000
00000000
00000000
00000000
00000000
00000000
00000000
00000000
00000000
00000000
00000000
00000000
00000000
00000000
00600000
00980000
010C0000
02040F00
02027080
0203C0C0
03038040
0183C040
00FC6040
00001880
00000F00
00000000
00000000
00000000
00000000
00000000
00000000
00000000
00000000
00000000
00000000
00000000
00000000
00000000
00000000
00000000
00000000
00000000
00000000
ENDCHAR
STARTCHAR U+2260
ENCODING 8800
SWIDTH 33000 0
DWIDTH 32 0
BBX 32 48 0 -10
BITMAP
00000000
00000000
00000000
00000000
00000000
00000000
00000000
00000000
00000000
00000000
00000000
00000000
00000000
00000000
00000000
00000000
00000180
00000300
00000200
00000400
00FFFF00
00001000
00001000
00002000
00004000
00004000
00008000
00FFFF00
00060000
00080000
00180000
00200000
00200000
00000000
00000000
00000000
00000000
00000000
00000000
00000000
00000000
00000000
00000000
00000000
00000000
00000000
00000000
00000000
ENDCHAR
STARTCHAR U+2264
ENCODING 8804
SWIDTH 33000 0
DWIDTH 32 0
BBX 32 48 0 -10
BITMAP
00000000
00000000
00000000
00000000
00000000
00000000
00000000
00000000
00000000
00000000
00000000
00000000
00000000
00000000
00000000
00001000
00003000
00004000
00018000
00030000
00060000
00080000
00100000
00600000
00600000
00380000
000F0000
0000E000
00001800
00000400
00FFFE00
00000000
00000000
00000000
00000000
00000000
00000000
00000000
00000000
00000000
00000000
00000000
00000000
00000000
00000000
00000000
00000000
00000000
ENDCHAR
STARTCHAR U+2265
ENCODING 8805
SWIDTH 33000 0
DWIDTH 32 0
BBX 32 48 0 -10
BITMAP
00000000
00000000
00000000
00000000
00000000
00000000
00000000
00000000
00000000
00000000
00000000
00000000
00000000
00000000
00000000
00000000
00000000
00000000
00000000
00300000
001C0000
00030000
0000E000
00001C00
00000300
00000300
00000E00
00003000
0001C000
000F0000
00380000
007FFF00
00000000
00000000
00000000
00000000
00000000
00000000
00000000
00000000
00000000
00000000
00000000
00000000
00000000
00000000
00000000
00000000
ENDCHAR
STARTCHAR U+25B2
ENCODING 9650
SWIDTH 33000 0
DWIDTH 32 0
BBX 32 48 0 -10
BITMAP
00000000
00000000
00000000
00000000
00000000
00004000
00004000
0000E000
0000F000
0001F800
0003FC00
0003FE00
0003FF00
0007FF00
000FFF00
000FFF80
000FFF80
001FFFC0
003FFFC0
007FFFE0
00FFFFE0
01FFFFE0
01FFFFE0
00000000
00000000
00000000
00000000
00000000
00000000
00000000
00000000
00000000
00000000
00000000
00000000
00000000
00000000
00000000
00000000
00000000
00000000
00000000
00000000
00000000
00000000
00000000
00000000
00000000
ENDCHAR
STARTCHAR U+25B6
ENCODING 9654
SWIDTH 33000 0
DWIDTH 32 0
BBX 32 48 0 -10
BITMAP
00000000
00000000
00000000
00000000
00000000
00000000
00000000
00000000
00000000
00000000
00000000
00000000
00000000
00000000
00000000
00040000
0007C000
0007F000
0007F800
0007FC00
0007FF00
0007FFC0
0007FFE0
0007FFE0
0007FFC0
0007FF80
0007FE00
0007FC00
0007F000
0007C000
00078000
00060000
00000000
00000000
00000000
00000000
00000000
00000000
00000000
00000000
00000000
00000000
00000000
00000000
00000000
00000000
00000000
00000000
ENDCHAR
STARTCHAR U+25BC
ENCODING 9660
SWIDTH 33000 0
DWIDTH 32 0
BBX 32 48 0 -10
BITMAP
00000000
00000000
00000000
00000000
00000000
00000000
00000000
00000000
00000000
00000000
00000000
00000000
00000000
00000000
00000000
00000000
00000000
00000000
00000000
00000000
00000000
00000000
00000000
00000000
01FFFFC0
03FFFFE0
01FFFFC0
01FFFFC0
00FFFF80
007FFF00
007FFF00
007FFE00
003FFC00
001FFC00
001FF800
000FF000
0007E000
0007C000
00038000
00038000
00030000
00010000
00000000
00000000
00000000
00000000
00000000
00000000
ENDCHAR
STARTCHAR U+25C0
ENCODING 9664
SWIDTH 33000 0
DWIDTH 32 0
BBX 32 48 0 -10
BITMAP
00000000
00000000
00000000
00000000
00000000
00000000
00000000
00000000
00000000
00000000
00000000
00000000
00000000
00000000
00000000
00000000
0001C000
0007C000
003FC000
007FC000
01FFC000
03FFC000
0FFFC000
1FFFC000
1FFFC000
0FFFC000
07FFC000
01FFC000
00FFC000
007FC000
001FC000
0007C000
0003C000
0000C000
00000000
00000000
00000000
00000000
00000000
00000000
00000000
00000000
00000000
00000000
00000000
00000000
00000000
00000000
ENDCHAR
STARTCHAR U+2605
ENCODING 9733
SWIDTH 33000 0
DWIDTH 32 0
BBX 32 48 0 -10
BITMAP
00000000
00000000
00000000
00000000
00000000
00000000
00000000
00000000
00000000
00000000
00000000
00000000
00000000
00000000
00038000
00078000
000FC000
000FC000
001FE000
07FFE000
07FFFFC0
03FFFF80
01FFFF00
00FFFF00
007FFE00
003FFC00
007FF800
00FFF000
01FFF000
03FFF800
07F8F800
07F07C00
07803E00
04000E00
00000700
00000000
00000000
00000000
00000000
00000000
00000000
00000000
00000000
00000000
00000000
00000000
00000000
00000000
ENDCHAR
STARTCHAR U+2606
ENCODING 9734
SWIDTH 33000 0
DWIDTH 32 0
BBX 32 48 0 -10
BITMAP
00000000
00000000
00000000
00000000
00000000
00000000
00000000
00000000
00000000
00000000
00000000
00000000
00000000
00010000
00068000
00044000
00084000
00182000
03F03000
0C001FF0
04000020
06000020
03000040
01000080
00C00300
00600200
00600E00
00400400
00810400
01838600
010CC200
03706300
03803100
07001900
00000F00
00000200
00000000
00000000
00000000
00000000
00000000
00000000
00000000
00000000
00000000
00000000
00000000
00000000
ENDCHAR
STARTCHAR U+2660
ENCODING 9824
SWIDTH 33000 0
DWIDTH 32 0
BBX 32 48 0 -10
BITMAP
00000000
00000000
00000000
00000000
00000000
00000000
00000000
00000000
00000000
00000000
00000000
00000000
00020000
00070000
000FC000
003FE000
003FE000
00FFF000
01FFF800
01FFFC00
01FFFC00
00FFFC00
00FFFC00
007FF800
003FF000
00020000
00020000
00020000
00000000
00000000
00000000
00000000
00000000
00000000
00000000
00000000
00000000
00000000
00000000
00000000
00000000
00000000
00000000
00000000
00000000
00000000
00000000
00000000
ENDCHAR
STARTCHAR U+2663
ENCODING 9827
SWIDTH 33000 0
DWIDTH 32 0
BBX 32 48 0 -10
BITMAP
00000000
00000000
00000000
00000000
00000000
00000000
00000000
00000000
00000000
00000000
00000000
0001C000
0007F000
001FF000
001FF800
001FF800
003FF800
003FF800
003FF800
00FFFF00
03FFFF80
03FFFFC0
03FFFFC0
03FFFFE0
07FFFFE0
07FFFFE0
07FFFFE0
07FFFFE0
03FFFFC0
01F88F80
00F08700
00008000
00008000
00008000
00000000
00000000
00000000
00000000
00000000
00000000
00000000
00000000
00000000
00000000
00000000
00000000
00000000
00000000
ENDCHAR
STARTCHAR U+2665
ENCODING 9829
SWIDTH 33000 0
DWIDTH 32 0
BBX 32 48 0 -10
BITMAP
00000000
00000000
00000000
00000000
00000000
00000000
00000000
00000000
00000000
00000000
00000000
00000000
00000000
00000000
00000000
00000000
00601F80
00F83FE0
01FCFFE0
01FEFFE0
01FFFFE0
03FFFFE0
03FFFFC0
03FFFF80
03FFFF80
01FFFF00
01FFFE00
00FFFC00
00FFFC00
007FF800
003FF000
003FE000
001FC000
000F8000
000F0000
000F0000
00060000
00040000
00000000
00000000
00000000
00000000
00000000
00000000
00000000
00000000
00000000
00000000
ENDCHAR
STARTCHAR U+2666
ENCODING 9830
SWIDTH 33000 0
DWIDTH 32 0
BBX 32 48 0 -10
BITMAP
00000000
00000000
00000000
00000000
00000000
00000000
00000000
00000000
00000000
00000000
00000000
00000000
00018000
0003C000
0007C000
000FE000
000FF000
001FF800
003FFC00
003FFE00
007FFF00
00FFFF80
01FFFF80
00FFFF80
00FFFF00
007FFF00
007FFE00
003FFE00
003FFC00
000FF800
000FF000
0007F000
0007C000
0007C000
00038000
00030000
00000000
00000000
00000000
00000000
00000000
00000000
00000000
00000000
00000000
00000000
00000000
00000000
ENDCHAR
STARTCHAR U+2713
ENCODING 10003
SWIDTH 33000 0
DWIDTH 32 0
BBX 32 48 0 -10
BITMAP
00000000
00000000
00000000
00000000
00000000
00000000
00000000
00000000
00000000
00000000
00000000
00000000
00000000
00000000
00000000
00000000
00000000
00000000
00000080
00000180
00000100
00000200
00000600
00800C00
00801800
00401000
00202000
00204000
00304000
00108000
00090000
000A0000
000E0000
00000000
00000000
00000000
00000000
00000000
00000000
00000000
00000000
00000000
00000000
00000000
00000000
00000000
00000000
00000000
ENDCHAR
STARTCHAR U+2717
ENCODING 10007
SWIDTH 33000 0
DWIDTH 32 0
BBX 32 48 0 -10
BITMAP
00000000
00000000
00000000
00000000
00000000
00000000
00000000
00000000
00000000
00000000
00000000
00000000
00000000
00000000
00000000
00000000
00000000
00000020
000200C0
00020180
00010100
00010600
0000B800
0000E000
00018000
0002C000
00064000
00084000
00182000
00201000
00201800
00400800
00800600
01800000
00000000
00000000
00000000
00000000
00000000
00000000
00000000
00000000
00000000
00000000
00000000
00000000
00000000
00000000
ENDCHAR
ENDFONT
